<?xml version="1.0" encoding="UTF-8" standalone="no"?>
<!-- Generated by IcoMoon.io -->

<svg
   xmlns:dc="http://purl.org/dc/elements/1.1/"
   xmlns:cc="http://creativecommons.org/ns#"
   xmlns:rdf="http://www.w3.org/1999/02/22-rdf-syntax-ns#"
   xmlns:svg="http://www.w3.org/2000/svg"
   xmlns="http://www.w3.org/2000/svg"
   xmlns:sodipodi="http://sodipodi.sourceforge.net/DTD/sodipodi-0.dtd"
   xmlns:inkscape="http://www.inkscape.org/namespaces/inkscape"
   version="1.1"
   width="36"
   height="36"
   viewBox="0 0 36 36"
   id="svg2"
   inkscape:version="0.91 r13725"
   sodipodi:docname="cart.svg">
  <metadata
     id="metadata14">
    <rdf:RDF>
      <cc:Work
         rdf:about="">
        <dc:format>image/svg+xml</dc:format>
        <dc:type
           rdf:resource="http://purl.org/dc/dcmitype/StillImage" />
        <dc:title></dc:title>
      </cc:Work>
    </rdf:RDF>
  </metadata>
  <defs
     id="defs12" />
  <sodipodi:namedview
     pagecolor="#ffffff"
     bordercolor="#666666"
     borderopacity="1"
     objecttolerance="10"
     gridtolerance="10"
     guidetolerance="10"
     inkscape:pageopacity="0"
     inkscape:pageshadow="2"
     inkscape:window-width="1859"
     inkscape:window-height="1056"
     id="namedview10"
     showgrid="false"
     inkscape:zoom="14.75"
     inkscape:cx="-0.06779661"
     inkscape:cy="8"
     inkscape:window-x="61"
     inkscape:window-y="24"
     inkscape:window-maximized="1"
     inkscape:current-layer="svg2" />
  <g
     id="g4142"
     transform="matrix(1.5084746,0,0,1.5378531,5.2203389,-26.481356)"
     style="fill:#c5cdd1;fill-opacity:1">
    <path
       style="fill:#c5cdd1;fill-opacity:1"
       inkscape:connector-curvature="0"
       id="path4"
       d="M 6,34.5 C 6,35.328 5.328,36 4.5,36 3.672,36 3,35.328 3,34.5 3,33.672 3.672,33 4.5,33 5.328,33 6,33.672 6,34.5 Z" />
    <path
       style="fill:#c5cdd1;fill-opacity:1"
       inkscape:connector-curvature="0"
       id="path6"
       d="M 16,34.5 C 16,35.328 15.328,36 14.5,36 13.672,36 13,35.328 13,34.5 13,33.672 13.672,33 14.5,33 c 0.828,0 1.5,0.672 1.5,1.5 z" />
    <path
       style="fill:#c5cdd1;fill-opacity:1"
       inkscape:connector-curvature="0"
       id="path8"
       d="M 16,28 16,22 4,22 C 4,21.448 3.552,21 3,21 l -3,0 0,1 2,0 0.751,6.438 C 2.293,28.805 2,29.368 2,30 c 0,1.105 0.895,2 2,2 l 12,0 0,-1 -12,0 C 3.448,31 3,30.552 3,30 3,29.997 3,29.993 3,29.99 L 16,28 Z" />
  </g>
</svg>
