<?xml version="1.0" encoding="UTF-8" standalone="no"?>
<svg
   xmlns:dc="http://purl.org/dc/elements/1.1/"
   xmlns:cc="http://creativecommons.org/ns#"
   xmlns:rdf="http://www.w3.org/1999/02/22-rdf-syntax-ns#"
   xmlns:svg="http://www.w3.org/2000/svg"
   xmlns="http://www.w3.org/2000/svg"
   xmlns:sodipodi="http://sodipodi.sourceforge.net/DTD/sodipodi-0.dtd"
   xmlns:inkscape="http://www.inkscape.org/namespaces/inkscape"
   version="1.1"
   id="Capa_1"
   x="0px"
   y="0px"
   width="60.16"
   height="60.16"
   viewBox="0 0 60.159997 60.159997"
   style="fill:#000000"
   xml:space="preserve"
   inkscape:version="0.91 r13725"
   sodipodi:docname="clock.svg"><metadata
     id="metadata45"><rdf:RDF><cc:Work
         rdf:about=""><dc:format>image/svg+xml</dc:format><dc:type
           rdf:resource="http://purl.org/dc/dcmitype/StillImage" /><dc:title /></cc:Work></rdf:RDF></metadata><defs
     id="defs43" /><sodipodi:namedview
     pagecolor="#ffffff"
     bordercolor="#666666"
     borderopacity="1"
     objecttolerance="10"
     gridtolerance="10"
     guidetolerance="10"
     inkscape:pageopacity="0"
     inkscape:pageshadow="2"
     inkscape:window-width="1859"
     inkscape:window-height="1056"
     id="namedview41"
     showgrid="false"
     inkscape:zoom="2.428983"
     inkscape:cx="-188.55628"
     inkscape:cy="48.580002"
     inkscape:window-x="61"
     inkscape:window-y="24"
     inkscape:window-maximized="1"
     inkscape:current-layer="Capa_1" /><g
     id="g4173"
     transform="matrix(-0.31355929,0,0,0.309322,46.521523,14.461864)"
     style="fill:#ffffff;fill-opacity:1"><g
       id="g3"
       style="fill:#ffffff;fill-opacity:1"><g
         id="g5"
         style="fill:#ffffff;fill-opacity:1"><path
           inkscape:connector-curvature="0"
           id="path7"
           style="fill:#ffffff;fill-opacity:1"
           d="M 48.58,0 C 21.793,0 0,21.793 0,48.58 0,75.367 21.793,97.16 48.58,97.16 75.367,97.16 97.16,75.367 97.16,48.58 97.16,21.793 75.367,0 48.58,0 Z m 0,86.823 c -21.087,0 -38.244,-17.155 -38.244,-38.243 0,-21.088 17.157,-38.243 38.244,-38.243 21.087,0 38.244,17.155 38.244,38.243 0,21.088 -17.157,38.243 -38.244,38.243 z" /><path
           inkscape:connector-curvature="0"
           id="path9"
           style="fill:#ffffff;fill-opacity:1"
           d="m 73.898,47.08 -21.832,0 0,-26.25 c 0,-2.209 -1.791,-4 -4,-4 -2.209,0 -4,1.791 -4,4 l 0,30.25 c 0,2.209 1.791,4 4,4 l 25.832,0 c 2.209,0 4,-1.791 4,-4 0,-2.209 -1.791,-4 -4,-4 z" /></g></g><g
       id="g11"
       style="fill:#ffffff;fill-opacity:1" /><g
       id="g13"
       style="fill:#ffffff;fill-opacity:1" /><g
       id="g15"
       style="fill:#ffffff;fill-opacity:1" /><g
       id="g17"
       style="fill:#ffffff;fill-opacity:1" /><g
       id="g19"
       style="fill:#ffffff;fill-opacity:1" /><g
       id="g21"
       style="fill:#ffffff;fill-opacity:1" /><g
       id="g23"
       style="fill:#ffffff;fill-opacity:1" /><g
       id="g25"
       style="fill:#ffffff;fill-opacity:1" /><g
       id="g27"
       style="fill:#ffffff;fill-opacity:1" /><g
       id="g29"
       style="fill:#ffffff;fill-opacity:1" /><g
       id="g31"
       style="fill:#ffffff;fill-opacity:1" /><g
       id="g33"
       style="fill:#ffffff;fill-opacity:1" /><g
       id="g35"
       style="fill:#ffffff;fill-opacity:1" /><g
       id="g37"
       style="fill:#ffffff;fill-opacity:1" /><g
       id="g39"
       style="fill:#ffffff;fill-opacity:1" /></g></svg>