<?xml version="1.0" encoding="UTF-8" standalone="no"?>
<svg
   xmlns:dc="http://purl.org/dc/elements/1.1/"
   xmlns:cc="http://creativecommons.org/ns#"
   xmlns:rdf="http://www.w3.org/1999/02/22-rdf-syntax-ns#"
   xmlns:svg="http://www.w3.org/2000/svg"
   xmlns="http://www.w3.org/2000/svg"
   xmlns:sodipodi="http://sodipodi.sourceforge.net/DTD/sodipodi-0.dtd"
   xmlns:inkscape="http://www.inkscape.org/namespaces/inkscape"
   version="1.1"
   id="Capa_1"
   x="0px"
   y="0px"
   viewBox="0 0 36.000001 36.000001"
   style="fill:#404040"
   xml:space="preserve"
   inkscape:version="0.91 r13725"
   sodipodi:docname="community.svg"
   width="36"
   height="36"><metadata
     id="metadata43"><rdf:RDF><cc:Work
         rdf:about=""><dc:format>image/svg+xml</dc:format><dc:type
           rdf:resource="http://purl.org/dc/dcmitype/StillImage" /><dc:title></dc:title></cc:Work></rdf:RDF></metadata><defs
     id="defs41" /><sodipodi:namedview
     pagecolor="#ffffff"
     bordercolor="#666666"
     borderopacity="1"
     objecttolerance="10"
     gridtolerance="10"
     guidetolerance="10"
     inkscape:pageopacity="0"
     inkscape:pageshadow="2"
     inkscape:window-width="1859"
     inkscape:window-height="1056"
     id="namedview39"
     showgrid="false"
     inkscape:zoom="6.8025742"
     inkscape:cx="24.710388"
     inkscape:cy="10.602445"
     inkscape:window-x="61"
     inkscape:window-y="24"
     inkscape:window-maximized="1"
     inkscape:current-layer="Capa_1" /><g
     style="fill:#c5cdd1;fill-opacity:1"
     id="g3"
     transform="matrix(0.04369706,0,0,0.04766356,5.8801269,3.9549572)"><g
       style="fill:#c5cdd1;fill-opacity:1"
       id="g5"><path
         style="fill:#c5cdd1;fill-opacity:1"
         d="m 433.908,332.01 c 8.16,4.08 12.24,11.018 12.24,20.811 l 0,78.945 0,14.076 c 0,6.119 -1.836,11.424 -5.508,15.912 -3.672,4.488 -8.365,6.732 -14.076,6.732 l -300.492,0 c -5.304,0 -9.792,-2.244 -13.464,-6.732 -3.672,-4.488 -5.508,-9.793 -5.508,-15.912 l 0,-14.076 0,-78.945 c 0,-9.793 4.08,-16.73 12.24,-20.811 l 84.456,-39.168 33.048,-15.3 c -15.504,-9.384 -27.336,-22.848 -35.496,-40.392 -7.752,-15.504 -11.628,-32.028 -11.628,-49.572 0,-5.304 0.408,-10.404 1.224,-15.3 0.816,-4.896 1.836,-9.588 3.06,-14.076 5.712,-20.808 16.014,-37.944 30.906,-51.408 14.892,-13.464 32.13,-20.196 51.714,-20.196 19.991,0 37.536,6.936 52.632,20.808 15.096,13.872 25.297,31.416 30.6,52.632 2.041,10.2 3.063,19.38 3.063,27.54 0,16.32 -3.266,32.028 -9.791,47.124 -8.16,18.36 -19.992,32.232 -35.496,41.616 l 34.883,16.524 81.393,39.168 0,0 z M 107.1,306.305 c -8.976,4.08 -16.014,10.305 -21.114,18.666 -5.1,8.365 -7.65,17.646 -7.65,27.85 l 0,78.945 -63.036,0 c -4.488,0 -8.16,-1.732 -11.016,-5.199 C 1.428,423.096 0,418.711 0,413.409 l 0,-74.666 c 0,-8.979 3.264,-14.689 9.792,-17.137 l 94.86,-44.064 C 93.228,270.606 84.048,260.712 77.112,247.86 70.176,235.008 66.708,220.626 66.708,204.714 c 0,-11.016 1.836,-21.522 5.508,-31.518 3.672,-9.996 8.67,-18.666 14.994,-26.01 6.324,-7.344 13.668,-13.158 22.032,-17.442 8.364,-4.284 17.442,-6.426 27.234,-6.426 6.528,0 12.648,1.02 18.36,3.06 5.712,2.04 11.22,4.692 16.524,7.956 -6.936,17.136 -10.404,34.884 -10.404,53.244 0,14.28 2.04,28.05 6.12,41.31 4.08,13.26 9.792,25.194 17.136,35.802 -4.488,4.896 -9.18,8.772 -14.076,11.628 L 107.1,306.305 Z m 438.193,15.301 c 6.525,3.264 9.791,8.977 9.791,17.137 l 0,74.664 c 0,5.303 -1.43,9.688 -4.283,13.158 -2.857,3.467 -6.529,5.199 -11.02,5.199 l -64.871,0 0,-78.945 c 0,-10.201 -2.551,-19.482 -7.648,-27.85 -5.102,-8.361 -11.936,-14.586 -20.502,-18.666 l -60.588,-28.761 c -5.711,-3.264 -11.223,-7.956 -16.523,-14.076 6.938,-10.608 12.342,-22.338 16.217,-35.19 3.877,-12.852 5.814,-26.418 5.814,-40.698 0,-9.384 -0.816,-18.36 -2.447,-26.928 -1.633,-8.568 -4.08,-16.932 -7.344,-25.092 5.303,-3.672 11.016,-6.63 17.135,-8.874 6.121,-2.244 12.445,-3.366 18.975,-3.366 9.793,0 18.973,2.142 27.537,6.426 8.568,4.284 16.018,10.098 22.342,17.442 6.32,7.344 11.318,16.014 14.99,26.01 3.676,9.996 5.512,20.502 5.512,31.518 0,15.504 -3.471,29.682 -10.404,42.534 -6.939,12.852 -15.709,22.746 -26.316,29.682 l 93.633,44.676 0,0 z"
         id="path7"
         inkscape:connector-curvature="0" /></g></g><g
     style="fill:#404040"
     id="g9"
     transform="translate(0,-519.08398)" /><g
     style="fill:#404040"
     id="g11"
     transform="translate(0,-519.08398)" /><g
     style="fill:#404040"
     id="g13"
     transform="translate(0,-519.08398)" /><g
     style="fill:#404040"
     id="g15"
     transform="translate(0,-519.08398)" /><g
     style="fill:#404040"
     id="g17"
     transform="translate(0,-519.08398)" /><g
     style="fill:#404040"
     id="g19"
     transform="translate(0,-519.08398)" /><g
     style="fill:#404040"
     id="g21"
     transform="translate(0,-519.08398)" /><g
     style="fill:#404040"
     id="g23"
     transform="translate(0,-519.08398)" /><g
     style="fill:#404040"
     id="g25"
     transform="translate(0,-519.08398)" /><g
     style="fill:#404040"
     id="g27"
     transform="translate(0,-519.08398)" /><g
     style="fill:#404040"
     id="g29"
     transform="translate(0,-519.08398)" /><g
     style="fill:#404040"
     id="g31"
     transform="translate(0,-519.08398)" /><g
     style="fill:#404040"
     id="g33"
     transform="translate(0,-519.08398)" /><g
     style="fill:#404040"
     id="g35"
     transform="translate(0,-519.08398)" /><g
     style="fill:#404040"
     id="g37"
     transform="translate(0,-519.08398)" /></svg>