<?xml version="1.0" encoding="UTF-8" standalone="no"?>
<!-- Generated by IcoMoon.io -->

<svg
   xmlns:dc="http://purl.org/dc/elements/1.1/"
   xmlns:cc="http://creativecommons.org/ns#"
   xmlns:rdf="http://www.w3.org/1999/02/22-rdf-syntax-ns#"
   xmlns:svg="http://www.w3.org/2000/svg"
   xmlns="http://www.w3.org/2000/svg"
   xmlns:sodipodi="http://sodipodi.sourceforge.net/DTD/sodipodi-0.dtd"
   xmlns:inkscape="http://www.inkscape.org/namespaces/inkscape"
   version="1.1"
   width="32"
   height="32"
   viewBox="0 0 32 32"
   id="svg2"
   inkscape:version="0.91 r13725"
   sodipodi:docname="eye.svg">
  <metadata
     id="metadata10">
    <rdf:RDF>
      <cc:Work
         rdf:about="">
        <dc:format>image/svg+xml</dc:format>
        <dc:type
           rdf:resource="http://purl.org/dc/dcmitype/StillImage" />
        <dc:title></dc:title>
      </cc:Work>
    </rdf:RDF>
  </metadata>
  <defs
     id="defs8" />
  <sodipodi:namedview
     pagecolor="#ffffff"
     bordercolor="#666666"
     borderopacity="1"
     objecttolerance="10"
     gridtolerance="10"
     guidetolerance="10"
     inkscape:pageopacity="0"
     inkscape:pageshadow="2"
     inkscape:window-width="1859"
     inkscape:window-height="1056"
     id="namedview6"
     showgrid="false"
     inkscape:zoom="14.75"
     inkscape:cx="-0.06779661"
     inkscape:cy="16.135593"
     inkscape:window-x="61"
     inkscape:window-y="24"
     inkscape:window-maximized="1"
     inkscape:current-layer="svg2" />
  <path
     d="m 15.762712,9.2372881 c -4.420385,0 -8.252907,2.7208139 -10.1355934,6.6949149 1.8826864,3.974102 5.7152084,6.694916 10.1355934,6.694916 4.420386,0 8.252907,-2.720814 10.135593,-6.694916 C 24.015619,11.958102 20.183098,9.2372881 15.762712,9.2372881 Z m 4.998115,3.5509829 c 1.190932,0.80339 2.20069,1.878593 2.958326,3.143932 -0.757636,1.266678 -1.767394,2.341882 -2.958326,3.143932 -1.496267,1.008255 -3.224386,1.542509 -4.996848,1.542509 -1.772462,0 -3.50058,-0.532915 -4.998114,-1.542509 -1.1909325,-0.803389 -2.2006915,-1.878593 -2.9583269,-3.143932 0.7576354,-1.266678 1.7673944,-2.341881 2.9583269,-3.143932 0.07728,-0.05222 0.155834,-0.103102 0.234385,-0.152644 -0.197644,0.571746 -0.305334,1.189017 -0.305334,1.833068 0,2.957813 2.269106,5.355932 5.067796,5.355932 2.798691,0 5.067797,-2.398119 5.067797,-5.355932 0,-0.644051 -0.107691,-1.261322 -0.305335,-1.833068 0.07855,0.04954 0.157102,0.100424 0.234386,0.152644 l 0,0 z m -4.998115,1.135458 c 0,1.108678 -0.85139,2.008474 -1.900424,2.008474 -1.049033,0 -1.900423,-0.899796 -1.900423,-2.008474 0,-1.108678 0.85139,-2.008475 1.900423,-2.008475 1.049034,0 1.900424,0.899797 1.900424,2.008475 z"
     id="path4"
     inkscape:connector-curvature="0"
     style="fill:#56ccc8;fill-opacity:1" />
</svg>
