<?xml version="1.0" encoding="UTF-8" standalone="no"?>
<!-- Generated by IcoMoon.io -->

<svg
   xmlns:dc="http://purl.org/dc/elements/1.1/"
   xmlns:cc="http://creativecommons.org/ns#"
   xmlns:rdf="http://www.w3.org/1999/02/22-rdf-syntax-ns#"
   xmlns:svg="http://www.w3.org/2000/svg"
   xmlns="http://www.w3.org/2000/svg"
   xmlns:sodipodi="http://sodipodi.sourceforge.net/DTD/sodipodi-0.dtd"
   xmlns:inkscape="http://www.inkscape.org/namespaces/inkscape"
   version="1.1"
   width="26"
   height="26"
   viewBox="0 0 26 26"
   id="svg2"
   inkscape:version="0.91 r13725"
   sodipodi:docname="google-2.svg">
  <metadata
     id="metadata12">
    <rdf:RDF>
      <cc:Work
         rdf:about="">
        <dc:format>image/svg+xml</dc:format>
        <dc:type
           rdf:resource="http://purl.org/dc/dcmitype/StillImage" />
        <dc:title></dc:title>
      </cc:Work>
    </rdf:RDF>
  </metadata>
  <defs
     id="defs10" />
  <sodipodi:namedview
     pagecolor="#ffffff"
     bordercolor="#666666"
     borderopacity="1"
     objecttolerance="10"
     gridtolerance="10"
     guidetolerance="10"
     inkscape:pageopacity="0"
     inkscape:pageshadow="2"
     inkscape:window-width="1859"
     inkscape:window-height="1056"
     id="namedview8"
     showgrid="false"
     inkscape:zoom="14.75"
     inkscape:cx="-5.220339"
     inkscape:cy="8"
     inkscape:window-x="61"
     inkscape:window-y="24"
     inkscape:window-maximized="1"
     inkscape:current-layer="svg2" />
  <g
     id="g4140"
     transform="matrix(1.2627118,0,0,1.3128562,-2.410227,0.37091679)"
     style="fill:#ffffff;fill-opacity:1">
    <path
       style="fill:#ffffff;fill-opacity:1"
       inkscape:connector-curvature="0"
       id="path4"
       d="m 9.3621864,8.706322 0,1.747 2.8879996,0 c -0.116,0.75 -0.872,2.197 -2.8879996,2.197 -1.737,0 -3.156,-1.441 -3.156,-3.216 0,-1.775 1.419,-3.216 3.156,-3.216 0.9909996,0 1.6499996,0.422 2.0279996,0.784 l 1.381,-1.331 c -0.888,-0.828 -2.037,-1.331 -3.4089996,-1.331 -2.816,0.003 -5.091,2.278 -5.091,5.094 0,2.816 2.275,5.091 5.091,5.091 2.9369996,0 4.8879996,-2.066 4.8879996,-4.975 0,-0.334 -0.037,-0.591 -0.081,-0.844 l -4.8059996,0 z" />
    <path
       style="fill:#ffffff;fill-opacity:1"
       inkscape:connector-curvature="0"
       id="path6"
       d="m 20.271186,8.559322 -1.5,0 0,-1.5 -1.5,0 0,1.5 -1.5,0 0,1.5 1.5,0 0,1.5 1.5,0 0,-1.5 1.5,0 z" />
  </g>
</svg>
