<?xml version="1.0" encoding="UTF-8" standalone="no"?>
<svg
   xmlns:dc="http://purl.org/dc/elements/1.1/"
   xmlns:cc="http://creativecommons.org/ns#"
   xmlns:rdf="http://www.w3.org/1999/02/22-rdf-syntax-ns#"
   xmlns:svg="http://www.w3.org/2000/svg"
   xmlns="http://www.w3.org/2000/svg"
   xmlns:sodipodi="http://sodipodi.sourceforge.net/DTD/sodipodi-0.dtd"
   xmlns:inkscape="http://www.inkscape.org/namespaces/inkscape"
   version="1.1"
   id="Capa_1"
   x="0px"
   y="0px"
   viewBox="0 0 60.000002 60.000002"
   style="fill:#000000"
   xml:space="preserve"
   inkscape:version="0.91 r13725"
   sodipodi:docname="heart-filled.svg"
   width="60"
   height="60"><metadata
     id="metadata41"><rdf:RDF><cc:Work
         rdf:about=""><dc:format>image/svg+xml</dc:format><dc:type
           rdf:resource="http://purl.org/dc/dcmitype/StillImage" /><dc:title /></cc:Work></rdf:RDF></metadata><defs
     id="defs39" /><sodipodi:namedview
     pagecolor="#ffffff"
     bordercolor="#666666"
     borderopacity="1"
     objecttolerance="10"
     gridtolerance="10"
     guidetolerance="10"
     inkscape:pageopacity="0"
     inkscape:pageshadow="2"
     inkscape:window-width="1859"
     inkscape:window-height="1056"
     id="namedview37"
     showgrid="false"
     inkscape:zoom="13.892773"
     inkscape:cx="23.303052"
     inkscape:cy="39.67426"
     inkscape:window-x="61"
     inkscape:window-y="24"
     inkscape:window-maximized="1"
     inkscape:current-layer="Capa_1" /><g
     style="fill:#ea6060;fill-opacity:1"
     id="g3"
     transform="matrix(0.49576319,0,0,0.54181014,13.244344,7.9057216)"><path
       d="m 62.49,11.239 c -7.39,-7.388 -19.412,-7.388 -26.8,0 l -1.716,1.715 -1.715,-1.715 C 24.871,3.85 12.848,3.85 5.46,11.239 -1.778,18.477 -1.825,29.95 5.351,37.927 c 6.545,7.273 25.848,22.986 26.667,23.651 0.556,0.452 1.225,0.672 1.89,0.672 0.022,0 0.044,0 0.065,-10e-4 0.688,0.032 1.381,-0.204 1.955,-0.671 C 36.747,60.913 56.052,45.2 62.599,37.926 69.774,29.95 69.727,18.477 62.49,11.239 Z"
       style="fill:#ea6060;fill-opacity:1"
       id="path5"
       inkscape:connector-curvature="0"
       sodipodi:nodetypes="cccccccscccc" /></g><g
     style="fill:#000000"
     id="g7"
     transform="translate(0,-7.9489975)" /><g
     style="fill:#000000"
     id="g9"
     transform="translate(0,-7.9489975)" /><g
     style="fill:#000000"
     id="g11"
     transform="translate(0,-7.9489975)" /><g
     style="fill:#000000"
     id="g13"
     transform="translate(0,-7.9489975)" /><g
     style="fill:#000000"
     id="g15"
     transform="translate(0,-7.9489975)" /><g
     style="fill:#000000"
     id="g17"
     transform="translate(0,-7.9489975)" /><g
     style="fill:#000000"
     id="g19"
     transform="translate(0,-7.9489975)" /><g
     style="fill:#000000"
     id="g21"
     transform="translate(0,-7.9489975)" /><g
     style="fill:#000000"
     id="g23"
     transform="translate(0,-7.9489975)" /><g
     style="fill:#000000"
     id="g25"
     transform="translate(0,-7.9489975)" /><g
     style="fill:#000000"
     id="g27"
     transform="translate(0,-7.9489975)" /><g
     style="fill:#000000"
     id="g29"
     transform="translate(0,-7.9489975)" /><g
     style="fill:#000000"
     id="g31"
     transform="translate(0,-7.9489975)" /><g
     style="fill:#000000"
     id="g33"
     transform="translate(0,-7.9489975)" /><g
     style="fill:#000000"
     id="g35"
     transform="translate(0,-7.9489975)" /></svg>