<?xml version="1.0" encoding="UTF-8" standalone="no"?>
<!-- Generated by IcoMoon.io -->

<svg
   xmlns:dc="http://purl.org/dc/elements/1.1/"
   xmlns:cc="http://creativecommons.org/ns#"
   xmlns:rdf="http://www.w3.org/1999/02/22-rdf-syntax-ns#"
   xmlns:svg="http://www.w3.org/2000/svg"
   xmlns="http://www.w3.org/2000/svg"
   xmlns:sodipodi="http://sodipodi.sourceforge.net/DTD/sodipodi-0.dtd"
   xmlns:inkscape="http://www.inkscape.org/namespaces/inkscape"
   version="1.1"
   width="32"
   height="32"
   viewBox="0 0 32 32"
   id="svg2"
   inkscape:version="0.91 r13725"
   sodipodi:docname="135-search.svg">
  <metadata
     id="metadata10">
    <rdf:RDF>
      <cc:Work
         rdf:about="">
        <dc:format>image/svg+xml</dc:format>
        <dc:type
           rdf:resource="http://purl.org/dc/dcmitype/StillImage" />
        <dc:title></dc:title>
      </cc:Work>
    </rdf:RDF>
  </metadata>
  <defs
     id="defs8" />
  <sodipodi:namedview
     pagecolor="#ffffff"
     bordercolor="#666666"
     borderopacity="1"
     objecttolerance="10"
     gridtolerance="10"
     guidetolerance="10"
     inkscape:pageopacity="0"
     inkscape:pageshadow="2"
     inkscape:window-width="1859"
     inkscape:window-height="1056"
     id="namedview6"
     showgrid="false"
     inkscape:showpageshadow="false"
     inkscape:zoom="14.75"
     inkscape:cx="-0.06779661"
     inkscape:cy="8"
     inkscape:window-x="61"
     inkscape:window-y="24"
     inkscape:window-maximized="1"
     inkscape:current-layer="svg2" />
  <path
     d="m 26.391968,23.754414 -5.556651,-4.547719 c -0.574724,-0.49809 -1.189035,-0.725264 -1.684588,-0.704099 1.31219,-1.478749 2.103903,-3.396325 2.103903,-5.493102 0,-4.6761207 -3.938038,-8.4661211 -8.796808,-8.4661211 -4.8587696,0 -8.7968071,3.7900004 -8.7968071,8.4661211 0,4.676122 3.9380375,8.466122 8.7968071,8.466122 2.178676,0 4.171153,-0.761951 5.707662,-2.024814 -0.02346,0.476925 0.214056,1.068142 0.731602,1.621262 l 4.725351,5.347767 c 0.809307,0.864955 2.130294,0.938329 2.936668,0.162267 0.806374,-0.776061 0.730135,-2.048801 -0.168606,-2.826273 z M 12.457824,18.652165 c -3.2386909,0 -5.8645379,-2.527138 -5.8645379,-5.644082 0,-3.1169433 2.625847,-5.6440806 5.8645379,-5.6440806 3.238692,0 5.864539,2.5271373 5.864539,5.6440806 0,3.116944 -2.625847,5.644082 -5.864539,5.644082 z"
     id="path4"
     inkscape:connector-curvature="0"
     style="fill:#c5cdd1;fill-opacity:1" />
</svg>
