<?xml version="1.0" encoding="UTF-8" standalone="no"?>
<svg
   xmlns:dc="http://purl.org/dc/elements/1.1/"
   xmlns:cc="http://creativecommons.org/ns#"
   xmlns:rdf="http://www.w3.org/1999/02/22-rdf-syntax-ns#"
   xmlns:svg="http://www.w3.org/2000/svg"
   xmlns="http://www.w3.org/2000/svg"
   xmlns:sodipodi="http://sodipodi.sourceforge.net/DTD/sodipodi-0.dtd"
   xmlns:inkscape="http://www.inkscape.org/namespaces/inkscape"
   version="1.1"
   id="Capa_1"
   x="0px"
   y="0px"
   viewBox="0 0 36 36"
   style="fill:#404040"
   xml:space="preserve"
   inkscape:version="0.91 r13725"
   sodipodi:docname="mail-2.svg"
   width="36"
   height="36"><metadata
     id="metadata47"><rdf:RDF><cc:Work
         rdf:about=""><dc:format>image/svg+xml</dc:format><dc:type
           rdf:resource="http://purl.org/dc/dcmitype/StillImage" /><dc:title></dc:title></cc:Work></rdf:RDF></metadata><defs
     id="defs45" /><sodipodi:namedview
     pagecolor="#ffffff"
     bordercolor="#666666"
     borderopacity="1"
     objecttolerance="10"
     gridtolerance="10"
     guidetolerance="10"
     inkscape:pageopacity="0"
     inkscape:pageshadow="2"
     inkscape:window-width="1859"
     inkscape:window-height="1056"
     id="namedview43"
     showgrid="false"
     inkscape:zoom="5.2149125"
     inkscape:cx="59.454749"
     inkscape:cy="-13.757776"
     inkscape:window-x="61"
     inkscape:window-y="24"
     inkscape:window-maximized="1"
     inkscape:current-layer="Capa_1" /><g
     style="fill:#c5cdd1;fill-opacity:1"
     id="g3"
     transform="matrix(0.0420497,0,0,0.04590099,7.166483,5.7973794)"><g
       style="fill:#c5cdd1;fill-opacity:1"
       id="g5"><g
         style="fill:#c5cdd1;fill-opacity:1"
         id="g7"><path
           style="fill:#c5cdd1;fill-opacity:1"
           d="m 30,92 c -8,0 -13,0.667 -15,2 -2,1.333 -2.333,2.833 -1,4.5 1.333,1.667 4.667,4.5 10,8.5 2.667,2 4.667,3.667 6,5 l 226,172 226,-171 5,-5 c 5.333,-4 8.833,-6.833 10.5,-8.5 1.667,-1.667 1.5,-3.333 -0.5,-5 C 495,92.833 490,92 482,92 L 241,92 30,92 Z"
           id="path9"
           inkscape:connector-curvature="0" /><path
           style="fill:#c5cdd1;fill-opacity:1"
           d="m 0,132 0,254 c 0,7.333 3,14.833 9,22.5 6,7.667 12,11.5 18,11.5 l 458,0 c 6,0 12,-3.833 18,-11.5 6,-7.667 9,-15.167 9,-22.5 L 512,132 256,328 0,132 Z"
           id="path11"
           inkscape:connector-curvature="0" /></g></g></g><g
     style="fill:#404040"
     id="g13"
     transform="translate(0,-476)" /><g
     style="fill:#404040"
     id="g15"
     transform="translate(0,-476)" /><g
     style="fill:#404040"
     id="g17"
     transform="translate(0,-476)" /><g
     style="fill:#404040"
     id="g19"
     transform="translate(0,-476)" /><g
     style="fill:#404040"
     id="g21"
     transform="translate(0,-476)" /><g
     style="fill:#404040"
     id="g23"
     transform="translate(0,-476)" /><g
     style="fill:#404040"
     id="g25"
     transform="translate(0,-476)" /><g
     style="fill:#404040"
     id="g27"
     transform="translate(0,-476)" /><g
     style="fill:#404040"
     id="g29"
     transform="translate(0,-476)" /><g
     style="fill:#404040"
     id="g31"
     transform="translate(0,-476)" /><g
     style="fill:#404040"
     id="g33"
     transform="translate(0,-476)" /><g
     style="fill:#404040"
     id="g35"
     transform="translate(0,-476)" /><g
     style="fill:#404040"
     id="g37"
     transform="translate(0,-476)" /><g
     style="fill:#404040"
     id="g39"
     transform="translate(0,-476)" /><g
     style="fill:#404040"
     id="g41"
     transform="translate(0,-476)" /></svg>