<?xml version="1.0" encoding="UTF-8" standalone="no"?>
<svg
   xmlns:dc="http://purl.org/dc/elements/1.1/"
   xmlns:cc="http://creativecommons.org/ns#"
   xmlns:rdf="http://www.w3.org/1999/02/22-rdf-syntax-ns#"
   xmlns:svg="http://www.w3.org/2000/svg"
   xmlns="http://www.w3.org/2000/svg"
   xmlns:sodipodi="http://sodipodi.sourceforge.net/DTD/sodipodi-0.dtd"
   xmlns:inkscape="http://www.inkscape.org/namespaces/inkscape"
   version="1.1"
   id="Capa_1"
   x="0px"
   y="0px"
   width="32"
   height="32"
   viewBox="0 0 32.000001 32.000001"
   style="fill:#000000"
   xml:space="preserve"
   inkscape:version="0.91 r13725"
   sodipodi:docname="page.svg"><metadata
     id="metadata41"><rdf:RDF><cc:Work
         rdf:about=""><dc:format>image/svg+xml</dc:format><dc:type
           rdf:resource="http://purl.org/dc/dcmitype/StillImage" /><dc:title></dc:title></cc:Work></rdf:RDF></metadata><defs
     id="defs39" /><sodipodi:namedview
     pagecolor="#ffffff"
     bordercolor="#666666"
     borderopacity="1"
     objecttolerance="10"
     gridtolerance="10"
     guidetolerance="10"
     inkscape:pageopacity="0"
     inkscape:pageshadow="2"
     inkscape:window-width="1859"
     inkscape:window-height="1056"
     id="namedview37"
     showgrid="false"
     inkscape:zoom="9.7420149"
     inkscape:cx="41.136251"
     inkscape:cy="11.635154"
     inkscape:window-x="61"
     inkscape:window-y="24"
     inkscape:window-maximized="1"
     inkscape:current-layer="Capa_1" /><g
     style="fill:#ffffff;fill-opacity:1"
     id="g3"
     transform="matrix(0.02333127,0,0,0.02449685,6.918617,6.0300178)"><path
       d="m 685.194,775.199 c 4.651,0 8.405,-3.793 8.405,-8.566 l 0,-758.065 C 693.599,3.836 689.845,0 685.194,0 L 90.004,0 C 85.353,0 81.6,3.794 81.6,8.568 l 0,758.065 c 0,4.732 3.753,8.566 8.405,8.566 l 595.189,0 z M 163.2,122.4 l 448.8,0 0,40.8 -448.8,0 0,-40.8 z m 0,122.4 448.8,0 0,40.8 -448.8,0 0,-40.8 z m 0,122.4 448.8,0 0,40.8 -448.8,0 0,-40.8 z m 0,122.4 448.8,0 0,40.8 -448.8,0 0,-40.8 z m 0,122.4 285.6,0 0,40.801 -285.6,0 0,-40.801 z"
       style="fill:#ffffff;fill-opacity:1"
       id="path5"
       inkscape:connector-curvature="0" /></g><g
     style="fill:#000000"
     id="g7"
     transform="translate(0,-743.19897)" /><g
     style="fill:#000000"
     id="g9"
     transform="translate(0,-743.19897)" /><g
     style="fill:#000000"
     id="g11"
     transform="translate(0,-743.19897)" /><g
     style="fill:#000000"
     id="g13"
     transform="translate(0,-743.19897)" /><g
     style="fill:#000000"
     id="g15"
     transform="translate(0,-743.19897)" /><g
     style="fill:#000000"
     id="g17"
     transform="translate(0,-743.19897)" /><g
     style="fill:#000000"
     id="g19"
     transform="translate(0,-743.19897)" /><g
     style="fill:#000000"
     id="g21"
     transform="translate(0,-743.19897)" /><g
     style="fill:#000000"
     id="g23"
     transform="translate(0,-743.19897)" /><g
     style="fill:#000000"
     id="g25"
     transform="translate(0,-743.19897)" /><g
     style="fill:#000000"
     id="g27"
     transform="translate(0,-743.19897)" /><g
     style="fill:#000000"
     id="g29"
     transform="translate(0,-743.19897)" /><g
     style="fill:#000000"
     id="g31"
     transform="translate(0,-743.19897)" /><g
     style="fill:#000000"
     id="g33"
     transform="translate(0,-743.19897)" /><g
     style="fill:#000000"
     id="g35"
     transform="translate(0,-743.19897)" /></svg>