<?xml version="1.0" encoding="UTF-8" standalone="no"?>
<!-- Generated by IcoMoon.io -->

<svg
   xmlns:dc="http://purl.org/dc/elements/1.1/"
   xmlns:cc="http://creativecommons.org/ns#"
   xmlns:rdf="http://www.w3.org/1999/02/22-rdf-syntax-ns#"
   xmlns:svg="http://www.w3.org/2000/svg"
   xmlns="http://www.w3.org/2000/svg"
   xmlns:sodipodi="http://sodipodi.sourceforge.net/DTD/sodipodi-0.dtd"
   xmlns:inkscape="http://www.inkscape.org/namespaces/inkscape"
   version="1.1"
   width="32"
   height="32"
   viewBox="0 0 32 32"
   id="svg2"
   inkscape:version="0.91 r13725"
   sodipodi:docname="photo.svg">
  <metadata
     id="metadata10">
    <rdf:RDF>
      <cc:Work
         rdf:about="">
        <dc:format>image/svg+xml</dc:format>
        <dc:type
           rdf:resource="http://purl.org/dc/dcmitype/StillImage" />
        <dc:title />
      </cc:Work>
    </rdf:RDF>
  </metadata>
  <defs
     id="defs8" />
  <sodipodi:namedview
     pagecolor="#ffffff"
     bordercolor="#666666"
     borderopacity="1"
     objecttolerance="10"
     gridtolerance="10"
     guidetolerance="10"
     inkscape:pageopacity="0"
     inkscape:pageshadow="2"
     inkscape:window-width="1859"
     inkscape:window-height="1056"
     id="namedview6"
     showgrid="false"
     inkscape:zoom="14.75"
     inkscape:cx="13.141698"
     inkscape:cy="8"
     inkscape:window-x="61"
     inkscape:window-y="24"
     inkscape:window-maximized="1"
     inkscape:current-layer="svg2" />
  <path
     d="m 11.689619,16.527381 c 0,1.935417 1.732436,3.504237 3.869702,3.504237 2.137268,0 3.869704,-1.56882 3.869704,-3.504237 0,-1.935418 -1.732436,-3.504238 -3.869704,-3.504238 -2.137266,0 -3.869702,1.56882 -3.869702,3.504238 z m 12.204449,-5.930249 -4.167373,0 C 19.429025,9.5189048 19.131356,8.4406779 17.940678,8.4406779 l -4.762712,0 c -1.190677,0 -1.488347,1.0782269 -1.786017,2.1564541 l -4.1673726,0 c -0.6548729,0 -1.190678,0.485202 -1.190678,1.078227 l 0,9.704042 c 0,0.593025 0.5358051,1.078227 1.190678,1.078227 l 16.6694916,0 c 0.654872,0 1.190677,-0.485202 1.190677,-1.078227 l 0,-9.704042 c 0,-0.593025 -0.535805,-1.078227 -1.190677,-1.078227 z m -8.334747,10.715419 c -2.918351,0 -5.284228,-2.142436 -5.284228,-4.78517 0,-2.642734 2.365877,-4.785172 5.284228,-4.785172 2.918353,0 5.28423,2.142438 5.28423,4.785172 0,2.642734 -2.365877,4.78517 -5.28423,4.78517 z m 8.334747,-7.480738 -2.381356,0 0,-1.078227 2.381356,0 0,1.078227 z"
     id="path4"
     inkscape:connector-curvature="0"
     style="fill:#ffffff;fill-opacity:1" />
</svg>
