<?xml version="1.0" encoding="UTF-8" standalone="no"?>
<svg
   xmlns:dc="http://purl.org/dc/elements/1.1/"
   xmlns:cc="http://creativecommons.org/ns#"
   xmlns:rdf="http://www.w3.org/1999/02/22-rdf-syntax-ns#"
   xmlns:svg="http://www.w3.org/2000/svg"
   xmlns="http://www.w3.org/2000/svg"
   xmlns:sodipodi="http://sodipodi.sourceforge.net/DTD/sodipodi-0.dtd"
   xmlns:inkscape="http://www.inkscape.org/namespaces/inkscape"
   version="1.1"
   id="Capa_1"
   x="0px"
   y="0px"
   viewBox="0 0 26.392 26.392"
   xml:space="preserve"
   inkscape:version="0.91 r13725"
   sodipodi:docname="pint.svg"
   width="26.392"
   height="26.392"><metadata
     id="metadata75"><rdf:RDF><cc:Work
         rdf:about=""><dc:format>image/svg+xml</dc:format><dc:type
           rdf:resource="http://purl.org/dc/dcmitype/StillImage" /><dc:title></dc:title></cc:Work></rdf:RDF></metadata><defs
     id="defs73" /><sodipodi:namedview
     pagecolor="#ffffff"
     bordercolor="#666666"
     borderopacity="1"
     objecttolerance="10"
     gridtolerance="10"
     guidetolerance="10"
     inkscape:pageopacity="0"
     inkscape:pageshadow="2"
     inkscape:window-width="1859"
     inkscape:window-height="1056"
     id="namedview71"
     showgrid="false"
     inkscape:zoom="21.957888"
     inkscape:cx="15.616243"
     inkscape:cy="10.262235"
     inkscape:window-x="61"
     inkscape:window-y="24"
     inkscape:window-maximized="1"
     inkscape:current-layer="Capa_1" /><g
     id="g3"
     transform="matrix(0.03763548,0,0,0.03284129,3.9292484,5.2888679)"
     style="fill:#ffffff;fill-opacity:1"><g
       id="g5"
       style="fill:#ffffff;fill-opacity:1"><g
         id="g7"
         style="fill:#ffffff;fill-opacity:1"><path
           style="fill:#ffffff;fill-opacity:1"
           d="M 430.149,135.248 C 416.865,39.125 321.076,-9.818 218.873,1.642 138.071,10.701 57.512,76.03 54.168,169.447 c -2.037,57.029 14.136,99.801 68.399,111.84 23.499,-41.586 -7.569,-50.676 -12.433,-80.802 C 90.222,77.367 252.16,-6.718 336.975,79.313 c 58.732,59.583 20.033,242.77 -74.57,223.71 -90.621,-18.179 44.383,-164.005 -27.937,-192.611 -58.793,-23.286 -90.013,71.135 -62.137,118.072 -16.355,80.711 -51.557,156.709 -37.3,257.909 46.207,-33.561 61.802,-97.734 74.57,-164.704 23.225,14.136 35.659,28.758 65.268,31.038 109.195,8.48 170.267,-109.014 155.28,-217.479 z"
           id="path9"
           inkscape:connector-curvature="0" /></g></g><g
       id="g11"
       style="fill:#ffffff;fill-opacity:1" /><g
       id="g13"
       style="fill:#ffffff;fill-opacity:1" /><g
       id="g15"
       style="fill:#ffffff;fill-opacity:1" /><g
       id="g17"
       style="fill:#ffffff;fill-opacity:1" /><g
       id="g19"
       style="fill:#ffffff;fill-opacity:1" /><g
       id="g21"
       style="fill:#ffffff;fill-opacity:1" /><g
       id="g23"
       style="fill:#ffffff;fill-opacity:1" /><g
       id="g25"
       style="fill:#ffffff;fill-opacity:1" /><g
       id="g27"
       style="fill:#ffffff;fill-opacity:1" /><g
       id="g29"
       style="fill:#ffffff;fill-opacity:1" /><g
       id="g31"
       style="fill:#ffffff;fill-opacity:1" /><g
       id="g33"
       style="fill:#ffffff;fill-opacity:1" /><g
       id="g35"
       style="fill:#ffffff;fill-opacity:1" /><g
       id="g37"
       style="fill:#ffffff;fill-opacity:1" /><g
       id="g39"
       style="fill:#ffffff;fill-opacity:1" /></g><g
     id="g41"
     transform="translate(0,-460)" /><g
     id="g43"
     transform="translate(0,-460)" /><g
     id="g45"
     transform="translate(0,-460)" /><g
     id="g47"
     transform="translate(0,-460)" /><g
     id="g49"
     transform="translate(0,-460)" /><g
     id="g51"
     transform="translate(0,-460)" /><g
     id="g53"
     transform="translate(0,-460)" /><g
     id="g55"
     transform="translate(0,-460)" /><g
     id="g57"
     transform="translate(0,-460)" /><g
     id="g59"
     transform="translate(0,-460)" /><g
     id="g61"
     transform="translate(0,-460)" /><g
     id="g63"
     transform="translate(0,-460)" /><g
     id="g65"
     transform="translate(0,-460)" /><g
     id="g67"
     transform="translate(0,-460)" /><g
     id="g69"
     transform="translate(0,-460)" /></svg>