<?xml version="1.0" encoding="UTF-8" standalone="no"?>
<svg
   xmlns:dc="http://purl.org/dc/elements/1.1/"
   xmlns:cc="http://creativecommons.org/ns#"
   xmlns:rdf="http://www.w3.org/1999/02/22-rdf-syntax-ns#"
   xmlns:svg="http://www.w3.org/2000/svg"
   xmlns="http://www.w3.org/2000/svg"
   xmlns:sodipodi="http://sodipodi.sourceforge.net/DTD/sodipodi-0.dtd"
   xmlns:inkscape="http://www.inkscape.org/namespaces/inkscape"
   version="1.1"
   width="28"
   height="28"
   viewBox="0 0 28 28"
   style="fill:#404040"
   id="svg2"
   inkscape:version="0.91 r13725"
   sodipodi:docname="plus.svg">
  <metadata
     id="metadata10">
    <rdf:RDF>
      <cc:Work
         rdf:about="">
        <dc:format>image/svg+xml</dc:format>
        <dc:type
           rdf:resource="http://purl.org/dc/dcmitype/StillImage" />
        <dc:title />
      </cc:Work>
    </rdf:RDF>
  </metadata>
  <defs
     id="defs8" />
  <sodipodi:namedview
     pagecolor="#ffffff"
     bordercolor="#666666"
     borderopacity="1"
     objecttolerance="10"
     gridtolerance="10"
     guidetolerance="10"
     inkscape:pageopacity="0"
     inkscape:pageshadow="2"
     inkscape:window-width="1859"
     inkscape:window-height="1056"
     id="namedview6"
     showgrid="false"
     inkscape:zoom="14.75"
     inkscape:cx="-6.1544952"
     inkscape:cy="8"
     inkscape:window-x="61"
     inkscape:window-y="24"
     inkscape:window-maximized="1"
     inkscape:current-layer="svg2" />
  <g
     id="g4149"
     style="fill:#ffffff;fill-opacity:1"
     transform="matrix(0.78612718,0,0,0.80571428,3.4834916,3.2774818)">
    <path
       style="fill:#ffffff;fill-opacity:1"
       inkscape:connector-curvature="0"
       d="m 19.091103,12.245763 -4.03178,0 0,-4.0783902 c 0,-0.204661 -0.164204,-0.3707627 -0.366526,-0.3707627 l -2.199153,0 c -0.202321,0 -0.366525,0.1661017 -0.366525,0.3707627 l 0,4.0783902 -4.0317799,0 c -0.202322,0 -0.3665254,0.166101 -0.3665254,0.370762 l 0,2.224576 c 0,0.204662 0.1642034,0.370763 0.3665254,0.370763 l 4.0317799,0 0,4.07839 c 0,0.204661 0.164204,0.370763 0.366525,0.370763 l 2.199153,0 c 0.202322,0 0.366526,-0.166102 0.366526,-0.370763 l 0,-4.07839 4.03178,0 c 0.202321,0 0.366525,-0.166101 0.366525,-0.370763 l 0,-2.224576 c 0,-0.204661 -0.164204,-0.370762 -0.366525,-0.370762 z"
       id="path4140" />
  </g>
</svg>
