<?xml version="1.0" encoding="UTF-8" standalone="no"?>
<!-- Generated by IcoMoon.io -->

<svg
   xmlns:dc="http://purl.org/dc/elements/1.1/"
   xmlns:cc="http://creativecommons.org/ns#"
   xmlns:rdf="http://www.w3.org/1999/02/22-rdf-syntax-ns#"
   xmlns:svg="http://www.w3.org/2000/svg"
   xmlns="http://www.w3.org/2000/svg"
   xmlns:sodipodi="http://sodipodi.sourceforge.net/DTD/sodipodi-0.dtd"
   xmlns:inkscape="http://www.inkscape.org/namespaces/inkscape"
   version="1.1"
   width="26"
   height="26"
   viewBox="0 0 26 26"
   id="svg2"
   inkscape:version="0.91 r13725"
   sodipodi:docname="rss.svg">
  <metadata
     id="metadata10">
    <rdf:RDF>
      <cc:Work
         rdf:about="">
        <dc:format>image/svg+xml</dc:format>
        <dc:type
           rdf:resource="http://purl.org/dc/dcmitype/StillImage" />
        <dc:title></dc:title>
      </cc:Work>
    </rdf:RDF>
  </metadata>
  <defs
     id="defs8" />
  <sodipodi:namedview
     pagecolor="#ffffff"
     bordercolor="#666666"
     borderopacity="1"
     objecttolerance="10"
     gridtolerance="10"
     guidetolerance="10"
     inkscape:pageopacity="0"
     inkscape:pageshadow="2"
     inkscape:window-width="1859"
     inkscape:window-height="1056"
     id="namedview6"
     showgrid="false"
     inkscape:zoom="14.75"
     inkscape:cx="-0.06779661"
     inkscape:cy="8"
     inkscape:window-x="61"
     inkscape:window-y="24"
     inkscape:window-maximized="1"
     inkscape:current-layer="svg2" />
  <path
     d="m 7.6534322,15.757958 c -1.0804025,0 -1.9585169,0.868701 -1.9585169,1.927826 0,1.064566 0.8781144,1.9242 1.9585169,1.9242 1.0840805,0 1.9612753,-0.859634 1.9612753,-1.9242 0,-1.059125 -0.8771948,-1.927826 -1.9612753,-1.927826 z m -1.956678,-5.710029 0,2.781112 c 1.8362246,0 3.5621102,0.7082 4.8622698,1.991301 1.298323,1.279473 2.015527,2.989672 2.015527,4.807777 l 2.832033,0 c 0,-5.282026 -4.357469,-9.579283 -9.7098298,-9.579283 z m 0.00368,-4.9292849 0,2.782018 c 6.5486178,0 11.8779908,5.2611699 11.8779908,11.7265499 l 2.828356,0 c 0,-7.997849 -6.59827,-14.5085679 -14.7063468,-14.5085679 z"
     id="path4"
     inkscape:connector-curvature="0"
     style="fill:#ffffff;fill-opacity:1" />
</svg>
