<?xml version="1.0" encoding="UTF-8" standalone="no"?>
<svg
   xmlns:dc="http://purl.org/dc/elements/1.1/"
   xmlns:cc="http://creativecommons.org/ns#"
   xmlns:rdf="http://www.w3.org/1999/02/22-rdf-syntax-ns#"
   xmlns:svg="http://www.w3.org/2000/svg"
   xmlns="http://www.w3.org/2000/svg"
   xmlns:sodipodi="http://sodipodi.sourceforge.net/DTD/sodipodi-0.dtd"
   xmlns:inkscape="http://www.inkscape.org/namespaces/inkscape"
   version="1.1"
   id="Capa_1"
   x="0px"
   y="0px"
   viewBox="0 0 0.875 0.875"
   xml:space="preserve"
   width="32"
   height="32"
   inkscape:version="0.91 r13725"
   sodipodi:docname="speech-bubble.svg"><metadata
     id="metadata41"><rdf:RDF><cc:Work
         rdf:about=""><dc:format>image/svg+xml</dc:format><dc:type
           rdf:resource="http://purl.org/dc/dcmitype/StillImage" /><dc:title /></cc:Work></rdf:RDF></metadata><defs
     id="defs39" /><sodipodi:namedview
     pagecolor="#ffffff"
     bordercolor="#666666"
     borderopacity="1"
     objecttolerance="10"
     gridtolerance="10"
     guidetolerance="10"
     inkscape:pageopacity="0"
     inkscape:pageshadow="2"
     inkscape:window-width="1859"
     inkscape:window-height="1056"
     id="namedview37"
     showgrid="false"
     inkscape:zoom="7.375"
     inkscape:cx="-12.474576"
     inkscape:cy="2.3905108"
     inkscape:window-x="61"
     inkscape:window-y="24"
     inkscape:window-maximized="1"
     inkscape:current-layer="g3" /><g
     id="g3"
     transform="matrix(0.05415208,0,0,0.05362039,0.12584132,-0.00540167)"
     style="fill:#56ccc8;fill-opacity:1"><path
       d="m 5.983318,4.6509055 c -2.5558357,0 -4.6277418,1.5099276 -4.6277418,3.3717424 0,0.8815574 0.4647575,1.6852582 1.2256905,2.2860421 -0.029088,1.069477 -0.9131239,1.510897 -1.3758981,1.916732 0.8838986,0 2.542089,-0.67777 3.0789071,-1.06644 0.5262403,0.152034 1.0994192,0.235409 1.6990423,0.235409 2.5558357,0 4.627742,-1.5099281 4.627742,-3.3717431 0,-1.8618148 -2.0719063,-3.3717424 -4.627742,-3.3717424 z"
       id="path5"
       inkscape:connector-curvature="0"
       style="fill:#56ccc8;fill-opacity:1"
       sodipodi:nodetypes="sscccsss" /></g><g
     id="g7"
     transform="translate(0,-13.124999)" /><g
     id="g9"
     transform="translate(0,-13.124999)" /><g
     id="g11"
     transform="translate(0,-13.124999)" /><g
     id="g13"
     transform="translate(0,-13.124999)" /><g
     id="g15"
     transform="translate(0,-13.124999)" /><g
     id="g17"
     transform="translate(0,-13.124999)" /><g
     id="g19"
     transform="translate(0,-13.124999)" /><g
     id="g21"
     transform="translate(0,-13.124999)" /><g
     id="g23"
     transform="translate(0,-13.124999)" /><g
     id="g25"
     transform="translate(0,-13.124999)" /><g
     id="g27"
     transform="translate(0,-13.124999)" /><g
     id="g29"
     transform="translate(0,-13.124999)" /><g
     id="g31"
     transform="translate(0,-13.124999)" /><g
     id="g33"
     transform="translate(0,-13.124999)" /><g
     id="g35"
     transform="translate(0,-13.124999)" /></svg>