<?xml version="1.0" encoding="UTF-8" standalone="no"?>
<svg
   xmlns:dc="http://purl.org/dc/elements/1.1/"
   xmlns:cc="http://creativecommons.org/ns#"
   xmlns:rdf="http://www.w3.org/1999/02/22-rdf-syntax-ns#"
   xmlns:svg="http://www.w3.org/2000/svg"
   xmlns="http://www.w3.org/2000/svg"
   xmlns:sodipodi="http://sodipodi.sourceforge.net/DTD/sodipodi-0.dtd"
   xmlns:inkscape="http://www.inkscape.org/namespaces/inkscape"
   width="422"
   height="353"
   viewBox="0 0 422 353"
   id="svg2"
   version="1.1"
   inkscape:version="0.91 r13725"
   sodipodi:docname="sprite.svg">
  <metadata
     id="metadata334">
    <rdf:RDF>
      <cc:Work
         rdf:about="">
        <dc:format>image/svg+xml</dc:format>
        <dc:type
           rdf:resource="http://purl.org/dc/dcmitype/StillImage" />
      </cc:Work>
    </rdf:RDF>
  </metadata>
  <defs
     id="defs332" />
  <sodipodi:namedview
     pagecolor="#ffffff"
     bordercolor="#666666"
     borderopacity="1"
     objecttolerance="10"
     gridtolerance="10"
     guidetolerance="10"
     inkscape:pageopacity="0"
     inkscape:pageshadow="2"
     inkscape:window-width="1263"
     inkscape:window-height="544"
     id="namedview330"
     showgrid="false"
     inkscape:zoom="2.674221"
     inkscape:cx="357.06627"
     inkscape:cy="65.831015"
     inkscape:window-x="71"
     inkscape:window-y="34"
     inkscape:window-maximized="0"
     inkscape:current-layer="svg2" />
  <view
     id="about"
     viewBox="280 0 52 52" />
  <svg
     width="52"
     height="52"
     viewBox="-8 -8 52 52"
     x="280"
     id="svg4"
     version="1.1">
    <path
       d="M17.847 6.12c-6.523 0-11.812 5.29-11.812 11.812 0 6.523 5.29 11.813 11.812 11.813 6.523 0 11.813-5.29 11.813-11.813 0-6.523-5.29-11.812-11.813-11.812zm2.46 18.307c-.609.24-1.093.422-1.456.548a3.838 3.838 0 0 1-1.262.19c-.736 0-1.309-.18-1.717-.54a1.74 1.74 0 0 1-.61-1.367c0-.215.014-.435.044-.659a8.23 8.23 0 0 1 .147-.759l.761-2.688c.067-.258.125-.503.171-.73.046-.23.068-.442.068-.634 0-.342-.07-.582-.212-.717-.143-.135-.412-.2-.813-.2-.196 0-.398.028-.605.09-.205.062-.383.12-.529.175l.201-.828c.498-.203.975-.377 1.43-.52a4.225 4.225 0 0 1 1.29-.219c.731 0 1.295.178 1.692.53.395.353.594.812.594 1.376 0 .117-.014.323-.04.617a4.129 4.129 0 0 1-.153.811l-.757 2.68a7.582 7.582 0 0 0-.167.736 3.892 3.892 0 0 0-.073.626c0 .356.08.6.24.728.157.13.434.194.826.194.185 0 .392-.033.626-.097.232-.064.4-.12.506-.17l-.203.827zm-.135-10.878a1.807 1.807 0 0 1-1.275.492c-.496 0-.924-.164-1.28-.492a1.57 1.57 0 0 1-.533-1.193c0-.465.18-.865.533-1.196a1.812 1.812 0 0 1 1.28-.497c.497 0 .923.165 1.275.497.353.331.53.731.53 1.196 0 .467-.177.865-.53 1.193z"
       fill="#c5cdd1"
       id="path6" />
  </svg>
  <view
     id="about-white"
     viewBox="104 204.6 52 52" />
  <svg
     width="52"
     height="52"
     viewBox="-8 -8 52 52"
     x="104"
     y="204.6"
     id="svg8"
     version="1.1">
    <path
       d="M17.847 6.12c-6.523 0-11.812 5.29-11.812 11.812 0 6.523 5.29 11.813 11.812 11.813 6.523 0 11.813-5.29 11.813-11.813 0-6.523-5.29-11.812-11.813-11.812zm2.46 18.307c-.609.24-1.093.422-1.456.548a3.838 3.838 0 0 1-1.262.19c-.736 0-1.309-.18-1.717-.54a1.74 1.74 0 0 1-.61-1.367c0-.215.014-.435.044-.659a8.23 8.23 0 0 1 .147-.759l.761-2.688c.067-.258.125-.503.171-.73.046-.23.068-.442.068-.634 0-.342-.07-.582-.212-.717-.143-.135-.412-.2-.813-.2-.196 0-.398.028-.605.09-.205.062-.383.12-.529.175l.201-.828c.498-.203.975-.377 1.43-.52a4.225 4.225 0 0 1 1.29-.219c.731 0 1.295.178 1.692.53.395.353.594.812.594 1.376 0 .117-.014.323-.04.617a4.129 4.129 0 0 1-.153.811l-.757 2.68a7.582 7.582 0 0 0-.167.736 3.892 3.892 0 0 0-.073.626c0 .356.08.6.24.728.157.13.434.194.826.194.185 0 .392-.033.626-.097.232-.064.4-.12.506-.17l-.203.827zm-.135-10.878a1.807 1.807 0 0 1-1.275.492c-.496 0-.924-.164-1.28-.492a1.57 1.57 0 0 1-.533-1.193c0-.465.18-.865.533-1.196a1.812 1.812 0 0 1 1.28-.497c.497 0 .923.165 1.275.497.353.331.53.731.53 1.196 0 .467-.177.865-.53 1.193z"
       fill="#fff"
       id="path10" />
  </svg>
  <view
     id="arr"
     viewBox="380 84 32 32" />
  <svg
     width="32"
     height="32"
     viewBox="-8 -8 32 32"
     x="380"
     y="84"
     id="svg12"
     version="1.1">
    <path
       d="M4.675 10.576c0-.139-.083.058.036-.041L8.2 7.902 4.891 5.066l1.414-1.053 4.217 3.5c.113.095.18.232.18.376a.488.488 0 0 1-.18.376l-4.217 3.5z"
       fill="#263a54"
       id="path14" />
  </svg>
  <view
     id="avatar"
     viewBox="48 256.6 48 48" />
  <svg
     width="48"
     height="48"
     viewBox="-8 -8 48 48"
     x="48"
     y="256.6"
     id="svg16"
     version="1.1">
    <defs
       id="defs18">
      <linearGradient
         id="adf">
        <stop
           offset="0"
           stop-color="#de5644"
           id="stop21" />
        <stop
           offset=".5"
           stop-color="#da4531"
           id="stop23" />
        <stop
           offset="1"
           stop-color="#ce3a28"
           id="stop25" />
      </linearGradient>
      <linearGradient
         id="ade">
        <stop
           offset="0"
           stop-color="#0aa561"
           id="stop28" />
        <stop
           offset=".5"
           stop-color="#009b58"
           id="stop30" />
        <stop
           offset="1"
           stop-color="#00914b"
           id="stop32" />
      </linearGradient>
      <linearGradient
         id="add">
        <stop
           offset="0"
           stop-color="#1a6fef"
           id="stop35" />
        <stop
           offset=".25"
           stop-color="#1e72ef"
           id="stop37" />
        <stop
           offset=".5"
           stop-color="#166bec"
           id="stop39" />
        <stop
           offset=".75"
           stop-color="#1267e9"
           id="stop41" />
        <stop
           offset="1"
           stop-color="#1063e5"
           stop-opacity=".87"
           id="stop43" />
      </linearGradient>
      <linearGradient
         id="adc">
        <stop
           offset="0"
           stop-color="#ffc01a"
           id="stop46" />
        <stop
           offset=".5"
           stop-color="#ffba03"
           id="stop48" />
        <stop
           offset="1"
           stop-color="#ffb300"
           id="stop50" />
      </linearGradient>
      <linearGradient
         id="adb">
        <stop
           offset="0"
           stop-color="#de5744"
           id="stop53" />
        <stop
           offset=".5"
           stop-color="#db4632"
           id="stop55" />
        <stop
           offset="1"
           stop-color="#d13d29"
           id="stop57" />
      </linearGradient>
      <linearGradient
         id="ada">
        <stop
           offset="0"
           stop-color="#196eef"
           id="stop60" />
        <stop
           offset=".5"
           stop-color="#186dee"
           id="stop62" />
        <stop
           offset="1"
           stop-color="#1065e7"
           id="stop64" />
      </linearGradient>
    </defs>
    <g
       transform="matrix(.05426 0 0 .04958 6.44 7.002)"
       fill="#c5cdd1"
       id="g66">
      <path
         d="M256.525 233.831c-9.843-4.337-21-9.251-21.415-12.685-1.764-14.58 4.656-22.362 13.541-33.133 11.972-14.512 26.871-32.574 26.871-74.024 0-32.64-7.907-60.333-22.867-80.085C235.858 11.724 210.28 0 178.687 0c-31.593 0-57.172 11.724-73.969 33.904-14.959 19.752-22.867 47.445-22.867 80.085 0 41.451 14.899 59.512 26.871 74.024 8.885 10.771 15.305 18.554 13.541 33.133-.415 3.433-11.572 8.348-21.415 12.685-32.6 14.362-87.162 38.399-87.162 118.542a5 5 0 0 0 5 5h320a5 5 0 0 0 5-5c.001-80.143-54.561-104.18-87.161-118.542z"
         id="path68" />
    </g>
  </svg>
  <view
     id="bkt"
     viewBox="240 256.6 48 48" />
  <svg
     viewBox="-8 -8 48 48"
     width="48"
     height="48"
     x="240"
     y="256.6"
     id="svg70"
     version="1.1">
    <path
       d="M5.763 7.915v9.183h6c0 3.47-3 6.122-3 6.122h3s3-3.469 3-6.122V7.915h-9zm11 0v9.183h6c0 3.47-3 6.122-3 6.122h3s3-3.469 3-6.122V7.915h-9z"
       fill="#fff"
       id="path72" />
  </svg>
  <view
     id="blog"
     viewBox="156 204.6 52 52" />
  <svg
     viewBox="-8 -8 52 52"
     width="52"
     height="52"
     x="156"
     y="204.6"
     id="svg74"
     version="1.1">
    <path
       d="M26.474 6.545a.79.79 0 0 0-.568.252l-1.35 1.404 3.162 3.205 1.386-1.368c.34-.346.34-.807 0-1.152l-2.061-2.089a.79.79 0 0 0-.569-.252zm-2.736 2.449l-10.34 10.478v3.241h3.198l10.34-10.478-3.198-3.241zM8.85 11.19c-1.25 0-2.274 1.037-2.274 2.305v13.828c0 1.267 1.024 2.304 2.274 2.304h13.645c1.25 0 2.274-1.037 2.274-2.304V17.168l-2.274 2.304v7.85H8.85V13.496h7.746l2.274-2.305H8.85z"
       fill="#c5cdd1"
       id="path76" />
    <path
       d="M16.17 13.208l-5.098 5.135.219 6.547-.41-.012 7.077.026 4.568-4.763 1.149-1.072-.183 4.728-.102-.305.102 3.864-4.272 1.119c-3.466-.143-3.69-.645-11.491-.306V12.61c1.538-.403 4.966-.335 8.644-.203z"
       fill="#c5cdd1"
       fill-rule="evenodd"
       stroke="#c5cdd1"
       id="path78" />
  </svg>
  <view
     id="blog-white"
     viewBox="208 204.6 52 52" />
  <svg
     viewBox="-8 -8 52 52"
     width="52"
     height="52"
     x="208"
     y="204.6"
     id="svg80"
     version="1.1">
    <g
       fill="#fff"
       stroke="#fff"
       id="g82">
      <path
         d="M26.474 6.545a.79.79 0 0 0-.568.252l-1.35 1.404 3.162 3.205 1.386-1.368c.34-.346.34-.807 0-1.152l-2.061-2.089a.79.79 0 0 0-.569-.252zm-2.736 2.449l-10.34 10.478v3.241h3.198l10.34-10.478-3.198-3.241zM8.85 11.19c-1.25 0-2.274 1.037-2.274 2.305v13.828c0 1.267 1.024 2.304 2.274 2.304h13.645c1.25 0 2.274-1.037 2.274-2.304V17.168l-2.274 2.304v7.85H8.85V13.496h7.746l2.274-2.305H8.85z"
         id="path84" />
      <path
         d="M16.17 13.208l-5.098 5.135.219 6.547-.41-.012 7.077.026 4.568-4.763 1.149-1.072-.183 4.728-.102-.305.102 3.864-4.272 1.119c-3.466-.143-3.69-.645-11.491-.306V12.61c1.538-.403 4.966-.335 8.644-.203z"
         fill-rule="evenodd"
         id="path86" />
    </g>
  </svg>
  <view
     id="camera"
     viewBox="0 304.6 48 48" />
  <svg
     width="48"
     height="48"
     viewBox="-8 -8 48 48"
     y="304.6"
     id="svg88"
     version="1.1">
    <path
       d="M21.745 13.81v-3.248c0-.557-.378-.929-.945-.929H7.564c-.568 0-.946.372-.946.929v11.137c0 .556.378.928.946.928H20.8c.567 0 .945-.372.945-.928V18.45l3.782 3.713V10.098z"
       fill="#fff"
       id="path90" />
  </svg>
  <view
     id="cart"
     viewBox="105.2 152 52 52" />
  <svg
     width="52"
     height="52"
     viewBox="-8 -8 52 52"
     x="105.2"
     y="152"
     id="svg92"
     version="1.1">
    <g
       transform="matrix(1.50847 0 0 1.53785 5.22 -26.481)"
       fill="#c5cdd1"
       id="g94">
      <path
         d="M6 34.5a1.5 1.5 0 1 1-3.001-.001A1.5 1.5 0 0 1 6 34.5zM16 34.5a1.5 1.5 0 1 1-3.001-.001A1.5 1.5 0 0 1 16 34.5zM16 28v-6H4a1 1 0 0 0-1-1H0v1h2l.751 6.438A2 2 0 0 0 4 32h12v-1H4a1 1 0 0 1-1-1v-.01L16 28z"
         id="path96" />
    </g>
  </svg>
  <view
     id="cart-white"
     viewBox="157.2 152 52 52" />
  <svg
     width="52"
     height="52"
     viewBox="-8 -8 52 52"
     x="157.2"
     y="152"
     id="svg98"
     version="1.1">
    <g
       transform="matrix(1.50847 0 0 1.53785 5.22 -26.481)"
       fill="#fff"
       id="g100">
      <path
         d="M6 34.5a1.5 1.5 0 1 1-3.001-.001A1.5 1.5 0 0 1 6 34.5zM16 34.5a1.5 1.5 0 1 1-3.001-.001A1.5 1.5 0 0 1 16 34.5zM16 28v-6H4a1 1 0 0 0-1-1H0v1h2l.751 6.438A2 2 0 0 0 4 32h12v-1H4a1 1 0 0 1-1-1v-.01L16 28z"
         id="path102" />
    </g>
  </svg>
  <view
     id="check-fb"
     viewBox="192 304.6 44 44" />
  <svg
     width="44"
     height="44"
     viewBox="-8 -8 44 44"
     fill="#404040"
     x="192"
     y="304.6"
     id="svg104"
     version="1.1">
    <path
       d="M18.818 9.614l-5.784 5.833-2.7-2.722-1.927 1.944 4.627 4.666 7.712-7.777z"
       fill="#4d6baa"
       id="path106" />
  </svg>
  <view
     id="check-tw"
     viewBox="236 304.6 44 44" />
  <svg
     width="44"
     height="44"
     viewBox="-8 -8 44 44"
     fill="#404040"
     x="236"
     y="304.6"
     id="svg108"
     version="1.1">
    <path
       d="M18.818 9.614l-5.784 5.833-2.7-2.722-1.927 1.944 4.627 4.666 7.712-7.777z"
       fill="#4fc6f8"
       id="path110" />
  </svg>
  <view
     id="clock"
     viewBox="0 76 76 76" />
  <svg
     width="76"
     height="76"
     viewBox="-8.02 -8.02 76.2 76.2"
     y="76"
     id="svg112"
     version="1.1">
    <g
       transform="matrix(-.31356 0 0 .30932 46.522 14.462)"
       fill="#fff"
       id="g114">
      <path
         d="M48.58 0C21.793 0 0 21.793 0 48.58s21.793 48.58 48.58 48.58 48.58-21.793 48.58-48.58S75.367 0 48.58 0zm0 86.823c-21.087 0-38.244-17.155-38.244-38.243S27.493 10.337 48.58 10.337 86.824 27.492 86.824 48.58 69.667 86.823 48.58 86.823z"
         id="path116" />
      <path
         d="M73.898 47.08H52.066V20.83a4 4 0 0 0-8 0v30.25a4 4 0 0 0 4 4h25.832a4 4 0 0 0 0-8z"
         id="path118" />
    </g>
  </svg>
  <view
     id="community"
     viewBox="0 204.6 52 52" />
  <svg
     viewBox="-8 -8 52 52"
     width="52"
     height="52"
     fill="#404040"
     y="204.6"
     id="svg120"
     version="1.1">
    <path
       d="M24.84 19.78c.357.194.535.525.535.992v4.433c0 .292-.08.545-.24.759a.738.738 0 0 1-.615.32H11.39c-.233 0-.429-.106-.59-.32a1.228 1.228 0 0 1-.24-.759v-4.433c0-.467.178-.798.535-.992l3.69-1.867 1.445-.73c-.678-.447-1.195-1.088-1.552-1.925a5.603 5.603 0 0 1-.454-3.092 7.33 7.33 0 0 1 .134-.67c.25-.992.7-1.81 1.35-2.45.65-.643 1.404-.963 2.26-.963.873 0 1.64.33 2.3.991.66.661 1.105 1.498 1.337 2.509.089.486.134.924.134 1.313 0 .777-.143 1.526-.428 2.246-.357.875-.874 1.536-1.551 1.983l1.524.788 3.557 1.867zm-14.28-1.225a2.12 2.12 0 0 0-.923.89 2.674 2.674 0 0 0-.334 1.327v3.762H6.55a.578.578 0 0 1-.482-.247 1.012 1.012 0 0 1-.187-.627V20.1c0-.427.143-.7.428-.816l4.145-2.1c-.5-.331-.9-.803-1.203-1.415-.303-.613-.455-1.298-.455-2.057 0-.525.08-1.025.24-1.502.161-.476.38-.89.656-1.24s.597-.627.963-.831a2.4 2.4 0 0 1 1.19-.306c.285 0 .552.048.802.146.25.097.49.223.722.379a7.237 7.237 0 0 0-.455 2.538c0 .68.09 1.337.268 1.969.178.632.428 1.2.749 1.706a2.725 2.725 0 0 1-.615.554l-2.755 1.43zm19.148.729c.285.155.428.428.428.817v3.558c0 .253-.063.462-.187.628a.578.578 0 0 1-.482.247h-2.835v-3.762c0-.487-.111-.929-.334-1.328a2.16 2.16 0 0 0-.896-.89l-2.647-1.37c-.25-.156-.49-.38-.722-.671a6.73 6.73 0 0 0 .708-1.678c.17-.612.254-1.259.254-1.94 0-.447-.035-.875-.107-1.283a6.932 6.932 0 0 0-.32-1.196c.231-.175.48-.316.748-.423.268-.107.544-.16.83-.16.427 0 .829.102 1.203.306.374.204.7.481.976.831s.495.764.655 1.24c.16.477.24.977.24 1.502a4.51 4.51 0 0 1-.454 2.028c-.303.612-.686 1.084-1.15 1.414l4.092 2.13z"
       fill="#c5cdd1"
       id="path122" />
  </svg>
  <view
     id="community-white"
     viewBox="52 204.6 52 52" />
  <svg
     viewBox="-8 -8 52 52"
     width="52"
     height="52"
     fill="#404040"
     x="52"
     y="204.6"
     id="svg124"
     version="1.1">
    <path
       d="M24.84 19.78c.357.194.535.525.535.992v4.433c0 .292-.08.545-.24.759a.738.738 0 0 1-.615.32H11.39c-.233 0-.429-.106-.59-.32a1.228 1.228 0 0 1-.24-.759v-4.433c0-.467.178-.798.535-.992l3.69-1.867 1.445-.73c-.678-.447-1.195-1.088-1.552-1.925a5.603 5.603 0 0 1-.454-3.092 7.33 7.33 0 0 1 .134-.67c.25-.992.7-1.81 1.35-2.45.65-.643 1.404-.963 2.26-.963.873 0 1.64.33 2.3.991.66.661 1.105 1.498 1.337 2.509.089.486.134.924.134 1.313 0 .777-.143 1.526-.428 2.246-.357.875-.874 1.536-1.551 1.983l1.524.788 3.557 1.867zm-14.28-1.225a2.12 2.12 0 0 0-.923.89 2.674 2.674 0 0 0-.334 1.327v3.762H6.55a.578.578 0 0 1-.482-.247 1.012 1.012 0 0 1-.187-.627V20.1c0-.427.143-.7.428-.816l4.145-2.1c-.5-.331-.9-.803-1.203-1.415-.303-.613-.455-1.298-.455-2.057 0-.525.08-1.025.24-1.502.161-.476.38-.89.656-1.24s.597-.627.963-.831a2.4 2.4 0 0 1 1.19-.306c.285 0 .552.048.802.146.25.097.49.223.722.379a7.237 7.237 0 0 0-.455 2.538c0 .68.09 1.337.268 1.969.178.632.428 1.2.749 1.706a2.725 2.725 0 0 1-.615.554l-2.755 1.43zm19.148.729c.285.155.428.428.428.817v3.558c0 .253-.063.462-.187.628a.578.578 0 0 1-.482.247h-2.835v-3.762c0-.487-.111-.929-.334-1.328a2.16 2.16 0 0 0-.896-.89l-2.647-1.37c-.25-.156-.49-.38-.722-.671a6.73 6.73 0 0 0 .708-1.678c.17-.612.254-1.259.254-1.94 0-.447-.035-.875-.107-1.283a6.932 6.932 0 0 0-.32-1.196c.231-.175.48-.316.748-.423.268-.107.544-.16.83-.16.427 0 .829.102 1.203.306.374.204.7.481.976.831s.495.764.655 1.24c.16.477.24.977.24 1.502a4.51 4.51 0 0 1-.454 2.028c-.303.612-.686 1.084-1.15 1.414l4.092 2.13z"
       fill="#fff"
       id="path126" />
  </svg>
  <view
     id="eye"
     viewBox="0 256.6 48 48" />
  <svg
     width="48"
     height="48"
     viewBox="-8 -8 48 48"
     y="256.6"
     id="svg128"
     version="1.1">
    <path
       d="M15.763 9.237c-4.42 0-8.253 2.721-10.136 6.695 1.883 3.974 5.715 6.695 10.136 6.695 4.42 0 8.253-2.72 10.135-6.695-1.882-3.974-5.715-6.695-10.135-6.695zm4.998 3.551a9.945 9.945 0 0 1 2.958 3.144 9.917 9.917 0 0 1-2.958 3.144 8.92 8.92 0 0 1-4.997 1.543c-1.772 0-3.5-.533-4.998-1.543a9.945 9.945 0 0 1-2.958-3.144A9.917 9.917 0 0 1 11 12.636a5.603 5.603 0 0 0-.305 1.833c0 2.958 2.269 5.356 5.068 5.356 2.798 0 5.068-2.398 5.068-5.356 0-.644-.108-1.262-.306-1.833.079.05.157.1.235.152zm-4.998 1.136c0 1.108-.852 2.008-1.9 2.008-1.05 0-1.901-.9-1.901-2.008 0-1.109.851-2.009 1.9-2.009 1.05 0 1.9.9 1.9 2.009z"
       fill="#56ccc8"
       id="path130" />
  </svg>
  <view
     id="fb"
     viewBox="228 156 48 48" />
  <svg
     width="48"
     height="48"
     viewBox="-8 -8 48 48"
     x="228"
     y="156"
     id="svg132"
     version="1.1">
    <path
       d="M17.56 9.31h2.711V5.965H17.56c-2.093 0-3.796 1.75-3.796 3.9v1.672h-2.17v3.343h2.17v8.916h3.254V14.88h2.712l.542-3.343h-3.254V9.867c0-.302.248-.558.542-.558z"
       fill="#c5cdd1"
       id="path134" />
  </svg>
  <view
     id="fb-2"
     viewBox="380 0 42 42" />
  <svg
     width="42"
     height="42"
     viewBox="-8 -8 42 42"
     x="380"
     id="svg136"
     version="1.1">
    <path
       d="M14.195 8.047h2.076v-2.86h-2.076c-1.603 0-2.907 1.496-2.907 3.336v1.43h-1.66v2.86h1.66v7.628h2.492v-7.627h2.076l.415-2.86H13.78v-1.43c0-.26.19-.477.415-.477z"
       fill="#fff"
       id="path138" />
  </svg>
  <view
     id="fb-3"
     viewBox="152 76 76 76" />
  <svg
     width="76"
     height="76"
     viewBox="-8 -8 76 76"
     x="152"
     y="76"
     id="svg140"
     version="1.1">
    <path
       d="M24.17 9.657h6.949V1.153h-6.95c-5.364 0-9.728 4.45-9.728 9.921v4.252H8.88v8.505h5.56v22.677h8.339V23.831h6.949l1.39-8.505h-8.34v-4.252c0-.768.637-1.417 1.39-1.417z"
       fill="#fff"
       id="path142" />
  </svg>
  <view
     id="flag"
     viewBox="332 48 48 48" />
  <svg
     width="48"
     height="48"
     viewBox="-8 -8 48 48"
     x="332"
     y="48"
     id="svg144"
     version="1.1">
    <path
       d="M16.136.814c-4.296 0-7.78 3.159-7.78 7.055 0 7.055 7.78 15.52 7.78 15.52s7.78-8.465 7.78-15.52c0-3.896-3.484-7.055-7.78-7.055zm0 11.288c-2.579 0-4.668-1.895-4.668-4.233 0-2.338 2.09-4.233 4.668-4.233 2.578 0 4.667 1.895 4.667 4.233 0 2.338-2.09 4.233-4.667 4.233z"
       fill="#fff"
       id="path146" />
  </svg>
  <view
     id="google"
     viewBox="332 144 48 48" />
  <svg
     width="48"
     height="48"
     viewBox="-8 -8 48 48"
     x="332"
     y="144"
     id="svg148"
     version="1.1">
    <g
       transform="matrix(1.33898 0 0 1.3661 -.363 2.343)"
       fill="#c5cdd1"
       id="g150">
      <path
         d="M9.362 8.706v1.747h2.888c-.116.75-.872 2.197-2.888 2.197-1.737 0-3.156-1.44-3.156-3.216 0-1.775 1.42-3.216 3.156-3.216.991 0 1.65.422 2.028.784l1.381-1.33c-.888-.829-2.037-1.332-3.409-1.332a5.09 5.09 0 0 0-5.09 5.094 5.085 5.085 0 0 0 5.09 5.091c2.937 0 4.888-2.066 4.888-4.975 0-.334-.037-.59-.08-.844H9.362zM20.271 8.56h-1.5v-1.5h-1.5v1.5h-1.5v1.5h1.5v1.5h1.5v-1.5h1.5z"
         id="path152" />
    </g>
  </svg>
  <view
     id="google-2"
     viewBox="380 42 42 42" />
  <svg
     width="42"
     height="42"
     viewBox="-8 -8 42 42"
     x="380"
     y="42"
     id="svg154"
     version="1.1">
    <g
       transform="matrix(1.26271 0 0 1.31286 -2.41 .37)"
       fill="#fff"
       id="g156">
      <path
         d="M9.362 8.706v1.747h2.888c-.116.75-.872 2.197-2.888 2.197-1.737 0-3.156-1.44-3.156-3.216 0-1.775 1.42-3.216 3.156-3.216.991 0 1.65.422 2.028.784l1.381-1.33c-.888-.829-2.037-1.332-3.409-1.332a5.09 5.09 0 0 0-5.09 5.094 5.085 5.085 0 0 0 5.09 5.091c2.937 0 4.888-2.066 4.888-4.975 0-.334-.037-.59-.08-.844H9.362zM20.271 8.56h-1.5v-1.5h-1.5v1.5h-1.5v1.5h1.5v1.5h1.5v-1.5h1.5z"
         id="path158" />
    </g>
  </svg>
  <view
     id="heart-filled"
     viewBox="152 0 76 76" />
  <svg
     viewBox="-8 -8 76 76"
     width="76"
     height="76"
     x="152"
     id="svg160"
     version="1.1">
    <path
       d="M44.225 13.995c-3.664-4.003-9.624-4.003-13.287 0l-.85.93-.85-.93c-3.664-4.003-9.624-4.003-13.287 0-3.588 3.922-3.611 10.138-.054 14.46 3.245 3.94 12.815 12.454 13.22 12.814.276.245.608.364.938.364h.032c.341.017.685-.11.97-.364.405-.36 9.976-8.873 13.222-12.815 3.557-4.321 3.533-10.537-.054-14.459z"
       fill="#ea6060"
       id="path162" />
  </svg>
  <view
     id="heart-linear"
     viewBox="76 76 76 76" />
  <svg
     viewBox="-8 -8 76 76"
     width="76"
     height="76"
     x="76"
     y="76"
     id="svg164"
     version="1.1">
    <path
       d="M44.225 13.995c-3.664-4.003-9.624-4.003-13.287 0l-.85.93-.85-.93c-3.664-4.003-9.624-4.003-13.287 0-3.588 3.922-3.611 10.138-.054 14.46 3.245 3.94 12.815 12.454 13.22 12.814.276.245.608.364.938.364h.032c.341.017.685-.11.97-.364.405-.36 9.976-8.873 13.222-12.815 3.557-4.321 3.533-10.537-.054-14.459zM42.068 26.28c-2.53 3.072-9.484 9.406-11.981 11.654-2.497-2.247-9.45-8.581-11.979-11.653-2.482-3.015-2.505-7.308-.054-9.987 1.252-1.368 2.896-2.052 4.54-2.052 1.644 0 3.288.684 4.54 2.052l1.87 2.044c.222.243.503.388.797.44.478.111.997-.034 1.369-.44l1.87-2.044c2.505-2.736 6.578-2.735 9.08 0 2.452 2.679 2.428 6.972-.052 9.986z"
       fill="#fff"
       id="path166" />
  </svg>
  <view
     id="home"
     viewBox="0 152 52.6 52.6" />
  <svg
     width="52.6"
     height="52.6"
     viewBox="-8 -8 52.6 52.6"
     fill="#404040"
     y="152"
     id="svg168"
     version="1.1">
    <path
       d="M31.641 17.174L19.23 6.5c-.579-.497-1.516-.497-2.087 0L4.734 17.174c-.579.497-.425.9.347.9H8.91v10.93c0 .595.501 1.09 1.114 1.09h4.685v-7.19c0-.596.502-1.09 1.115-1.09h4.731c.617 0 1.114.483 1.114 1.09v7.19h4.686c.616 0 1.114-.49 1.114-1.09V18.07h3.829c.76 0 .914-.4.343-.897z"
       fill="#c5cdd1"
       id="path170" />
  </svg>
  <view
     id="home-white"
     viewBox="52.6 152 52.6 52.6" />
  <svg
     width="52.6"
     height="52.6"
     viewBox="-8 -8 52.6 52.6"
     fill="#404040"
     x="52.6"
     y="152"
     id="svg172"
     version="1.1">
    <path
       d="M31.641 17.174L19.23 6.5c-.579-.497-1.516-.497-2.087 0L4.734 17.174c-.579.497-.425.9.347.9H8.91v10.93c0 .595.501 1.09 1.114 1.09h4.685v-7.19c0-.596.502-1.09 1.115-1.09h4.731c.617 0 1.114.483 1.114 1.09v7.19h4.686c.616 0 1.114-.49 1.114-1.09V18.07h3.829c.76 0 .914-.4.343-.897z"
       fill="#fff"
       id="path174" />
  </svg>
  <view
     id="lin"
     viewBox="96 256.6 48 48" />
  <svg
     width="48"
     height="48"
     viewBox="-8 -8 48 48"
     x="96"
     y="256.6"
     id="svg176"
     version="1.1">
    <g
       transform="matrix(1.1017 0 0 1.07823 7.56 -11.17)"
       fill="#fff"
       id="g178">
      <path
         d="M6 22h2.767v1.418h.04C9.192 22.727 10.134 22 11.539 22 14.46 22 15 23.818 15 26.183V31h-2.885v-4.27c0-1.018-.021-2.329-1.5-2.329-1.502 0-1.732 1.109-1.732 2.255V31H6v-9zM1 22h3v9H1v-9zM4 19.5a1.5 1.5 0 1 1-3.001-.001A1.5 1.5 0 0 1 4 19.5z"
         id="path180" />
    </g>
  </svg>
  <view
     id="m-glass"
     viewBox="144 256.6 48 48" />
  <svg
     width="48"
     height="48"
     viewBox="-8 -8 48 48"
     x="144"
     y="256.6"
     id="svg182"
     version="1.1">
    <path
       d="M26.392 23.754l-5.557-4.547c-.574-.498-1.189-.726-1.684-.704a8.244 8.244 0 0 0 2.104-5.494c0-4.676-3.938-8.466-8.797-8.466S3.66 8.333 3.66 13.01c0 4.677 3.938 8.467 8.797 8.467a8.961 8.961 0 0 0 5.707-2.025c-.023.477.215 1.068.732 1.621l4.725 5.348c.81.865 2.13.938 2.937.162.806-.776.73-2.049-.168-2.826zm-13.934-5.102c-3.239 0-5.865-2.527-5.865-5.644s2.626-5.644 5.865-5.644c3.239 0 5.864 2.527 5.864 5.644s-2.625 5.644-5.864 5.644z"
       fill="#c5cdd1"
       id="path184" />
  </svg>
  <view
     id="mail"
     viewBox="192 256.6 48 48" />
  <svg
     viewBox="-8 -8 48 48"
     width="48"
     height="48"
     fill="#404040"
     x="192"
     y="256.6"
     id="svg186"
     version="1.1">
    <g
       transform="matrix(.04205 0 0 .0459 4.865 -3.955)"
       fill="#fff"
       id="g188">
      <path
         d="M30 92c-8 0-13 .667-15 2s-2.333 2.833-1 4.5c1.333 1.667 4.667 4.5 10 8.5 2.667 2 4.667 3.667 6 5l226 172 226-171 5-5c5.333-4 8.833-6.833 10.5-8.5 1.667-1.667 1.5-3.333-.5-5-2-1.667-7-2.5-15-2.5H30z"
         id="path190" />
      <path
         d="M0 132v254c0 7.333 3 14.833 9 22.5S21 420 27 420h458c6 0 12-3.833 18-11.5s9-15.167 9-22.5V132L256 328 0 132z"
         id="path192" />
    </g>
  </svg>
  <view
     id="mail-2"
     viewBox="228 0 52 52" />
  <svg
     viewBox="-8 -8 52 52"
     width="52"
     height="52"
     fill="#404040"
     x="228"
     id="svg194"
     version="1.1">
    <g
       transform="matrix(.04205 0 0 .0459 7.166 5.797)"
       fill="#c5cdd1"
       id="g196">
      <path
         d="M30 92c-8 0-13 .667-15 2s-2.333 2.833-1 4.5c1.333 1.667 4.667 4.5 10 8.5 2.667 2 4.667 3.667 6 5l226 172 226-171 5-5c5.333-4 8.833-6.833 10.5-8.5 1.667-1.667 1.5-3.333-.5-5-2-1.667-7-2.5-15-2.5H30z"
         id="path198" />
      <path
         d="M0 132v254c0 7.333 3 14.833 9 22.5S21 420 27 420h458c6 0 12-3.833 18-11.5s9-15.167 9-22.5V132L256 328 0 132z"
         id="path200" />
    </g>
  </svg>
  <view
     id="page"
     viewBox="332 0 48 48" />
  <svg
     width="48"
     height="48"
     viewBox="-8 -8 48 48"
     x="332"
     id="svg202"
     version="1.1">
    <path
       d="M22.905 25.02c.109 0 .196-.093.196-.21V6.24c0-.116-.087-.21-.196-.21H9.02c-.109 0-.197.093-.197.21v18.57c0 .116.088.21.197.21h13.886zM10.726 9.028h10.471v1h-10.47v-1zm0 2.999h10.471v1h-10.47v-1zm0 2.998h10.471v1h-10.47v-1zm0 2.999h10.471v1h-10.47v-1zm0 2.998h6.664v1h-6.664v-1z"
       fill="#fff"
       id="path204" />
  </svg>
  <view
     id="phone"
     viewBox="280 104 48.11 48.11" />
  <svg
     viewBox="-8 -8 48.11 48.11"
     width="48.11"
     height="48.11"
     fill="#404040"
     x="280"
     y="104"
     id="svg206"
     version="1.1">
    <path
       d="M26.367 16.52a.978.978 0 0 1-.307.865l-2.919 2.852a1.642 1.642 0 0 1-.516.367c-.212.101-.42.166-.625.195-.015 0-.059.003-.132.01-.073.008-.168.012-.285.012-.278 0-.728-.047-1.35-.14-.622-.095-1.383-.325-2.283-.692-.9-.368-1.92-.919-3.062-1.653-1.141-.735-2.355-1.743-3.643-3.026-1.024-.993-1.873-1.944-2.546-2.852-.673-.907-1.215-1.746-1.624-2.517-.41-.77-.717-1.47-.922-2.096a10.979 10.979 0 0 1-.417-1.62c-.073-.454-.103-.81-.088-1.07s.022-.404.022-.432c.03-.202.095-.407.197-.616a1.62 1.62 0 0 1 .374-.508L9.16.725a.974.974 0 0 1 .702-.302c.19 0 .359.054.505.162.146.108.27.241.373.4l2.349 4.386c.131.23.168.482.11.756a1.34 1.34 0 0 1-.374.692L11.75 7.877a.359.359 0 0 0-.077.14.526.526 0 0 0-.033.163c.058.302.19.648.395 1.037.176.346.446.767.812 1.264.366.497.885 1.07 1.558 1.718.659.663 1.244 1.178 1.756 1.545s.94.637 1.284.81c.344.173.608.278.79.313l.275.054a.53.53 0 0 0 .142-.032.368.368 0 0 0 .143-.076l1.251-1.253c.264-.23.57-.346.922-.346.249 0 .446.044.593.13h.022l4.236 2.463c.307.188.49.425.548.714z"
       fill="#fff"
       id="path208" />
  </svg>
  <view
     id="photo"
     viewBox="332 96 48 48" />
  <svg
     width="48"
     height="48"
     viewBox="-8 -8 48 48"
     x="332"
     y="96"
     id="svg210"
     version="1.1">
    <path
       d="M11.69 16.527c0 1.936 1.732 3.505 3.87 3.505 2.137 0 3.869-1.57 3.869-3.505 0-1.935-1.732-3.504-3.87-3.504-2.137 0-3.87 1.569-3.87 3.504zm12.204-5.93h-4.167c-.298-1.078-.596-2.156-1.786-2.156h-4.763c-1.19 0-1.488 1.078-1.786 2.156H7.225c-.655 0-1.191.485-1.191 1.078v9.704c0 .593.536 1.079 1.19 1.079h16.67c.655 0 1.19-.486 1.19-1.079v-9.704c0-.593-.535-1.078-1.19-1.078zM15.56 21.313c-2.918 0-5.284-2.143-5.284-4.786 0-2.642 2.366-4.785 5.284-4.785 2.919 0 5.285 2.143 5.285 4.785 0 2.643-2.366 4.786-5.285 4.786zm8.335-7.481h-2.381v-1.078h2.381v1.078z"
       fill="#fff"
       id="path212" />
  </svg>
  <view
     id="pint"
     viewBox="280 304.6 42.39 42.39" />
  <svg
     viewBox="-8 -8 42.39 42.39"
     width="42.39"
     height="42.39"
     x="280"
     y="304.6"
     id="svg214"
     version="1.1">
    <g
       transform="matrix(.03764 0 0 .03284 3.93 5.289)"
       fill="#fff"
       id="g216">
      <path
         d="M430.149 135.248C416.865 39.125 321.076-9.818 218.873 1.642 138.071 10.701 57.512 76.03 54.168 169.447c-2.037 57.029 14.136 99.801 68.399 111.84 23.499-41.586-7.569-50.676-12.433-80.802C90.222 77.367 252.16-6.718 336.975 79.313c58.732 59.583 20.033 242.77-74.57 223.71-90.621-18.179 44.383-164.005-27.937-192.611-58.793-23.286-90.013 71.135-62.137 118.072-16.355 80.711-51.557 156.709-37.3 257.909 46.207-33.561 61.802-97.734 74.57-164.704 23.225 14.136 35.659 28.758 65.268 31.038 109.195 8.48 170.267-109.014 155.28-217.479z"
         id="path218" />
    </g>
  </svg>
  <view
     id="plus"
     viewBox="288 256.6 44 44" />
  <svg
     width="44"
     height="44"
     viewBox="-8 -8 44 44"
     fill="#404040"
     x="288"
     y="256.6"
     id="svg220"
     version="1.1">
    <path
       d="M18.492 13.144h-3.17V9.858a.294.294 0 0 0-.288-.299h-1.729a.294.294 0 0 0-.288.3v3.285h-3.17a.294.294 0 0 0-.288.299v1.792c0 .165.13.299.288.299h3.17v3.286c0 .165.129.299.288.299h1.729c.159 0 .288-.134.288-.3v-3.285h3.17c.159 0 .288-.134.288-.299v-1.792a.294.294 0 0 0-.288-.299z"
       fill="#fff"
       id="path222" />
  </svg>
  <view
     id="rss"
     viewBox="322.39 304.6 42 42" />
  <svg
     width="42"
     height="42"
     viewBox="-8 -8 42 42"
     x="322.39"
     y="304.6"
     id="svg224"
     version="1.1">
    <path
       d="M7.653 15.758c-1.08 0-1.958.869-1.958 1.928 0 1.064.878 1.924 1.958 1.924 1.085 0 1.962-.86 1.962-1.924 0-1.06-.877-1.928-1.962-1.928zm-1.956-5.71v2.781c1.836 0 3.562.708 4.862 1.991a6.708 6.708 0 0 1 2.016 4.808h2.832c0-5.282-4.358-9.58-9.71-9.58zm.003-4.93v2.783c6.55 0 11.878 5.26 11.878 11.726h2.829C20.407 11.63 13.809 5.12 5.7 5.12z"
       fill="#fff"
       id="path226" />
  </svg>
  <view
     id="share"
     viewBox="76 0 76 76" />
  <svg
     width="76"
     height="76"
     viewBox="-8 -8 76 76"
     x="76"
     id="svg228"
     version="1.1">
    <path
       d="M23.233 34.176s2.212-7.135 14.44-7.135v7.135l14.441-9.514-14.44-9.514v7.136c-9.627 0-14.441 5.934-14.441 11.892zm18.542 6.452l-25.22.068.102-17.525 6.497-.136c.38-.442.21-.088.646-.49 1.653-1.532 4.208-1.852 6.446-2.64h-16.64v23.786h31.288v-9.983l-3.119 2.764z"
       fill="#fff"
       id="path230" />
  </svg>
  <view
     id="share-mint"
     viewBox="48 304.6 48 48" />
  <svg
     width="48"
     height="48"
     viewBox="-8 -8 48 48"
     x="48"
     y="304.6"
     id="svg232"
     version="1.1">
    <path
       d="M13.597 17.426s1.188-3.444 7.753-3.444v3.444l7.753-4.592-7.753-4.592v3.444c-5.168 0-7.753 2.864-7.753 5.74zm9.955 3.115l-13.54.032.054-8.459 3.488-.065c.205-.214.114-.043.348-.237.887-.74 2.259-.894 3.46-1.274H8.429v11.48h16.799V17.2l-1.675 1.334z"
       fill="#56ccc8"
       id="path234" />
  </svg>
  <view
     id="slick-next"
     viewBox="96 304.6 48 48" />
  <svg
     width="48"
     height="48"
     viewBox="-8 -8 48 48"
     x="96"
     y="304.6"
     id="svg236"
     version="1.1">
    <path
       d="M10.83 20.772c0-.274-.14.113.063-.082l5.973-5.188-5.665-5.59 2.421-2.075 7.222 6.898c.195.187.309.457.309.741s-.112.554-.309.741l-7.222 6.898z"
       fill="#787878"
       id="path238" />
  </svg>
  <view
     id="slick-prev"
     viewBox="144 304.6 48 48" />
  <svg
     width="48"
     height="48"
     viewBox="-8 -8 48 48"
     x="144"
     y="304.6"
     id="svg240"
     version="1.1">
    <path
       d="M21.105 10.18c0 .274.141-.113-.063.082L15.07 15.45l5.666 5.59-2.422 2.075-7.221-6.898a1.03 1.03 0 0 1-.309-.741c0-.284.112-.554.309-.741l7.221-6.898z"
       fill="#787878"
       id="path242" />
  </svg>
  <view
     id="speech-bubble"
     viewBox="332 240 48 48" />
  <svg
     viewBox="-8 -8 16.88 16.88"
     width="48"
     height="48"
     x="332"
     y="240"
     id="svg244"
     version="1.1">
    <path
       d="M.45.244C.31.244.2.324.2.424c0 .048.024.091.066.123C.264.605.216.628.19.65A.405.405 0 0 0 .358.593C.386.6.418.606.45.606.588.606.7.525.7.425.7.325.588.244.45.244z"
       fill="#56ccc8"
       id="path246" />
  </svg>
  <view
     id="three-lines"
     viewBox="332 192 48 48" />
  <svg
     width="48"
     height="48"
     viewBox="-8 -8 48 48"
     x="332"
     y="192"
     id="svg248"
     version="1.1">
    <defs
       id="defs250">
      <linearGradient
         id="bpf">
        <stop
           offset="0"
           stop-color="#de5644"
           id="stop253" />
        <stop
           offset=".5"
           stop-color="#da4531"
           id="stop255" />
        <stop
           offset="1"
           stop-color="#ce3a28"
           id="stop257" />
      </linearGradient>
      <linearGradient
         id="bpe">
        <stop
           offset="0"
           stop-color="#0aa561"
           id="stop260" />
        <stop
           offset=".5"
           stop-color="#009b58"
           id="stop262" />
        <stop
           offset="1"
           stop-color="#00914b"
           id="stop264" />
      </linearGradient>
      <linearGradient
         id="bpd">
        <stop
           offset="0"
           stop-color="#1a6fef"
           id="stop267" />
        <stop
           offset=".25"
           stop-color="#1e72ef"
           id="stop269" />
        <stop
           offset=".5"
           stop-color="#166bec"
           id="stop271" />
        <stop
           offset=".75"
           stop-color="#1267e9"
           id="stop273" />
        <stop
           offset="1"
           stop-color="#1063e5"
           stop-opacity=".87"
           id="stop275" />
      </linearGradient>
      <linearGradient
         id="bpc">
        <stop
           offset="0"
           stop-color="#ffc01a"
           id="stop278" />
        <stop
           offset=".5"
           stop-color="#ffba03"
           id="stop280" />
        <stop
           offset="1"
           stop-color="#ffb300"
           id="stop282" />
      </linearGradient>
      <linearGradient
         id="bpb">
        <stop
           offset="0"
           stop-color="#de5744"
           id="stop285" />
        <stop
           offset=".5"
           stop-color="#db4632"
           id="stop287" />
        <stop
           offset="1"
           stop-color="#d13d29"
           id="stop289" />
      </linearGradient>
      <linearGradient
         id="bpa">
        <stop
           offset="0"
           stop-color="#196eef"
           id="stop292" />
        <stop
           offset=".5"
           stop-color="#186dee"
           id="stop294" />
        <stop
           offset="1"
           stop-color="#1065e7"
           id="stop296" />
      </linearGradient>
    </defs>
    <g
       transform="translate(.136 2.17)"
       fill="#fff"
       id="g298">
      <g
         transform="matrix(2.3962 0 0 3.30285 -8.64 -25.72)"
         id="g300">
        <path
           d="M5.72 8.983h8.898v.847H5.72zM5.72 11.102h8.898v.847H5.72z"
           id="path302" />
      </g>
      <path
         d="M4.932 17.855h21.322v2.799H4.932z"
         id="path304" />
    </g>
  </svg>
  <view
     id="trophy"
     viewBox="228 104 52 52" />
  <svg
     width="52"
     height="52"
     viewBox="-8 -8 52 52"
     x="228"
     y="104"
     id="svg306"
     version="1.1">
    <path
       d="M26.008 9.257V5.88H9.653v3.376H4.746v3.375c0 2.797 2.196 5.063 4.907 5.063.513 0 1.007-.08 1.472-.233 1.179 1.74 2.98 3.001 5.07 3.438v5.232h-1.636c-1.807 0-3.27 1.51-3.27 3.375h13.084c0-1.864-1.464-3.375-3.271-3.375h-1.636V20.9c2.09-.437 3.89-1.698 5.07-3.438.465.15.96.233 1.472.233 2.71 0 4.907-2.266 4.907-5.063V9.257h-4.907zM9.653 15.692c-1.634 0-2.966-1.372-2.966-3.06v-1.688h2.966v1.688c0 1.06.19 2.074.534 3.008-.173.032-.353.05-.534.05zm19.32-3.06c0 1.686-1.329 3.06-2.965 3.06-.183 0-.361-.019-.534-.05a8.666 8.666 0 0 0 .534-3.008v-1.688h2.966v1.688z"
       fill="#c5cdd1"
       id="path308" />
  </svg>
  <view
     id="trophy-white"
     viewBox="228 52 52 52" />
  <svg
     width="52"
     height="52"
     viewBox="-8 -8 52 52"
     x="228"
     y="52"
     id="svg310"
     version="1.1">
    <path
       d="M26.008 9.257V5.88H9.653v3.376H4.746v3.375c0 2.797 2.196 5.063 4.907 5.063.513 0 1.007-.08 1.472-.233 1.179 1.74 2.98 3.001 5.07 3.438v5.232h-1.636c-1.807 0-3.27 1.51-3.27 3.375h13.084c0-1.864-1.464-3.375-3.271-3.375h-1.636V20.9c2.09-.437 3.89-1.698 5.07-3.438.465.15.96.233 1.472.233 2.71 0 4.907-2.266 4.907-5.063V9.257h-4.907zM9.653 15.692c-1.634 0-2.966-1.372-2.966-3.06v-1.688h2.966v1.688c0 1.06.19 2.074.534 3.008-.173.032-.353.05-.534.05zm19.32-3.06c0 1.686-1.329 3.06-2.965 3.06-.183 0-.361-.019-.534-.05a8.666 8.666 0 0 0 .534-3.008v-1.688h2.966v1.688z"
       fill="#fff"
       id="path312" />
  </svg>
  <view
     id="tw"
     viewBox="280 200.11 48 48" />
  <svg
     width="48"
     height="48"
     viewBox="-8 -8 48 48"
     x="280"
     y="200.11"
     id="svg314"
     version="1.1">
    <path
       d="M24.203 9.625a6.583 6.583 0 0 1-2.035.602 3.815 3.815 0 0 0 1.56-2.119 6.828 6.828 0 0 1-2.252.93c-.648-.744-1.57-1.206-2.59-1.206-1.959 0-3.545 1.714-3.545 3.828 0 .299.03.59.091.872-2.948-.161-5.561-1.685-7.31-4.004a4.069 4.069 0 0 0-.48 1.925c0 1.328.624 2.502 1.576 3.187a3.368 3.368 0 0 1-1.608-.477v.048c0 1.856 1.222 3.406 2.846 3.756a3.31 3.31 0 0 1-1.604.066c.453 1.52 1.762 2.63 3.313 2.662-1.216 1.028-2.743 1.64-4.407 1.64a6.57 6.57 0 0 1-.847-.054c1.573 1.09 3.437 1.721 5.44 1.721 6.522 0 10.092-5.838 10.092-10.9 0-.168-.003-.331-.01-.496a7.462 7.462 0 0 0 1.77-1.98z"
       fill="#c5cdd1"
       id="path316" />
  </svg>
  <view
     id="tw-2"
     viewBox="280 152.11 48 48" />
  <svg
     width="48"
     height="48"
     viewBox="-8 -8 48 48"
     x="280"
     y="152.11"
     id="svg318"
     version="1.1">
    <path
       d="M23.119 10.824c-.501.245-1.041.408-1.605.48a3.045 3.045 0 0 0 1.23-1.692c-.54.35-1.14.606-1.775.743-.511-.595-1.238-.964-2.042-.964-1.544 0-2.794 1.37-2.794 3.058 0 .24.024.472.071.697-2.323-.129-4.384-1.346-5.763-3.199-.239.452-.378.98-.378 1.539 0 1.06.493 1.998 1.243 2.545a2.629 2.629 0 0 1-1.267-.38v.037c0 1.483.963 2.721 2.243 3.001a2.577 2.577 0 0 1-1.265.053c.357 1.215 1.39 2.1 2.612 2.127-.959.82-2.162 1.31-3.474 1.31a5.11 5.11 0 0 1-.667-.044 7.423 7.423 0 0 0 4.287 1.375c5.142 0 7.956-4.663 7.956-8.707 0-.135-.002-.265-.007-.396a5.935 5.935 0 0 0 1.394-1.582z"
       fill="#fff"
       id="path320" />
  </svg>
  <view
     id="tw-3"
     viewBox="0 0 76 76" />
  <svg
     width="76"
     height="76"
     viewBox="-8 -8 76 76"
     id="svg322"
     version="1.1">
    <path
       d="M56.475 9.725a21.203 21.203 0 0 1-6.202 1.705 10.903 10.903 0 0 0 4.753-6.002 21.697 21.697 0 0 1-6.86 2.634 10.778 10.778 0 0 0-7.89-3.417c-5.968 0-10.8 4.855-10.8 10.843 0 .847.091 1.673.276 2.47-8.98-.457-16.943-4.773-22.273-11.34a10.885 10.885 0 0 0-1.461 5.453c0 3.761 1.903 7.086 4.803 9.026a10.834 10.834 0 0 1-4.899-1.352v.136c0 5.258 3.723 9.647 8.671 10.638-.905.248-1.863.384-2.85.384-.699 0-1.37-.073-2.038-.195 1.379 4.306 5.369 7.446 10.092 7.538a21.625 21.625 0 0 1-13.424 4.647c-.875 0-1.728-.053-2.58-.156a30.481 30.481 0 0 0 16.57 4.875c19.873 0 30.75-16.534 30.75-30.871 0-.476-.01-.939-.03-1.405a21.74 21.74 0 0 0 5.388-5.608z"
       fill="#fff"
       id="path324" />
  </svg>
  <view
     id="viewMoreArrow"
     viewBox="280 52 52 52" />
  <svg
     width="52"
     height="52"
     viewBox="-8 -8 52 52"
     x="280"
     y="52"
     id="svg326"
     version="1.1">
    <path
       d="M14.656 23.381c0-.262-.113.11.05-.078l4.758-4.977-4.513-5.362 1.929-1.99 5.753 6.617c.155.18.246.438.246.71 0 .273-.09.532-.246.711L16.88 25.63z"
       fill="#ea6060"
       id="path328" />
  </svg>
  <g
     id="g4483"
     transform="matrix(36.57143,0,0,36.57143,383.01067,321.22381)">
    <g
       style="fill:#56ccc8;fill-opacity:1"
       transform="matrix(0.05415208,0,0,0.05362039,0.12584132,-0.00540167)"
       id="g3">
      <path
         sodipodi:nodetypes="sscccsss"
         style="fill:#56ccc8;fill-opacity:1"
         inkscape:connector-curvature="0"
         id="path5"
         d="m 5.983318,4.6509055 c -2.5558357,0 -4.6277418,1.5099276 -4.6277418,3.3717424 0,0.8815574 0.4647575,1.6852582 1.2256905,2.2860421 -0.029088,1.069477 -0.9131239,1.510897 -1.3758981,1.916732 0.8838986,0 2.542089,-0.67777 3.0789071,-1.06644 0.5262403,0.152034 1.0994192,0.235409 1.6990423,0.235409 2.5558357,0 4.627742,-1.5099281 4.627742,-3.3717431 0,-1.8618148 -2.0719063,-3.3717424 -4.627742,-3.3717424 z" />
    </g>
    <g
       transform="translate(0,-13.124999)"
       id="g7" />
    <g
       transform="translate(0,-13.124999)"
       id="g9" />
    <g
       transform="translate(0,-13.124999)"
       id="g11" />
    <g
       transform="translate(0,-13.124999)"
       id="g13" />
    <g
       transform="translate(0,-13.124999)"
       id="g15" />
    <g
       transform="translate(0,-13.124999)"
       id="g17" />
    <g
       transform="translate(0,-13.124999)"
       id="g19" />
    <g
       transform="translate(0,-13.124999)"
       id="g21" />
    <g
       transform="translate(0,-13.124999)"
       id="g23" />
    <g
       transform="translate(0,-13.124999)"
       id="g25" />
    <g
       transform="translate(0,-13.124999)"
       id="g27" />
    <g
       transform="translate(0,-13.124999)"
       id="g29" />
    <g
       transform="translate(0,-13.124999)"
       id="g31" />
    <g
       transform="translate(0,-13.124999)"
       id="g33" />
    <g
       transform="translate(0,-13.124999)"
       id="g35" />
  </g>
</svg>
