<?xml version="1.0" encoding="UTF-8" standalone="no"?>
<!-- Generated by IcoMoon.io -->

<svg
   xmlns:dc="http://purl.org/dc/elements/1.1/"
   xmlns:cc="http://creativecommons.org/ns#"
   xmlns:rdf="http://www.w3.org/1999/02/22-rdf-syntax-ns#"
   xmlns:svg="http://www.w3.org/2000/svg"
   xmlns="http://www.w3.org/2000/svg"
   xmlns:sodipodi="http://sodipodi.sourceforge.net/DTD/sodipodi-0.dtd"
   xmlns:inkscape="http://www.inkscape.org/namespaces/inkscape"
   version="1.1"
   width="32"
   height="32"
   viewBox="0 0 32 32"
   id="svg2"
   inkscape:version="0.91 r13725"
   sodipodi:docname="tw -2.svg">
  <metadata
     id="metadata10">
    <rdf:RDF>
      <cc:Work
         rdf:about="">
        <dc:format>image/svg+xml</dc:format>
        <dc:type
           rdf:resource="http://purl.org/dc/dcmitype/StillImage" />
        <dc:title />
      </cc:Work>
    </rdf:RDF>
  </metadata>
  <defs
     id="defs8" />
  <sodipodi:namedview
     pagecolor="#ffffff"
     bordercolor="#666666"
     borderopacity="1"
     objecttolerance="10"
     gridtolerance="10"
     guidetolerance="10"
     inkscape:pageopacity="0"
     inkscape:pageshadow="2"
     inkscape:window-width="1859"
     inkscape:window-height="1056"
     id="namedview6"
     showgrid="false"
     inkscape:showpageshadow="false"
     inkscape:zoom="14.75"
     inkscape:cx="-5.220339"
     inkscape:cy="8"
     inkscape:window-x="61"
     inkscape:window-y="24"
     inkscape:window-maximized="1"
     inkscape:current-layer="svg2" />
  <path
     d="m 23.118644,10.823636 c -0.500819,0.245171 -1.040816,0.408307 -1.604664,0.481019 0.577475,-0.378476 1.019524,-0.978819 1.229902,-1.6928914 -0.539999,0.349579 -1.139618,0.6059364 -1.77501,0.7429714 -0.511039,-0.5947494 -1.237567,-0.9639044 -2.041602,-0.9639044 -1.54419,0 -2.794533,1.3694144 -2.794533,3.0585774 0,0.238645 0.02384,0.471697 0.07154,0.69636 -2.323526,-0.128645 -4.383865,-1.34611 -5.762819,-3.1984084 -0.239337,0.4511894 -0.378169,0.9788194 -0.378169,1.5381444 0,1.060854 0.492301,1.998655 1.242677,2.545861 -0.458232,-0.01492 -0.889208,-0.154746 -1.267377,-0.381273 0,0.01212 0,0.02611 0,0.03822 0,1.483144 0.963309,2.721117 2.243461,3.00078 -0.234226,0.06991 -0.482079,0.108136 -0.737599,0.108136 -0.180567,0 -0.35432,-0.02051 -0.527222,-0.055 0.356876,1.214668 1.389174,2.100265 2.61141,2.126368 -0.958198,0.821275 -2.161696,1.310685 -3.473363,1.310685 -0.2265608,0 -0.4471588,-0.01491 -0.6677578,-0.04382 1.2401218,0.870684 2.7093588,1.375009 4.2876188,1.375009 5.141906,0 7.956029,-4.663839 7.956029,-8.70776 0,-0.134239 -0.0026,-0.264748 -0.0076,-0.396189 0.54596,-0.427883 1.019524,-0.967633 1.394286,-1.581958 z"
     id="path4"
     inkscape:connector-curvature="0"
     style="fill:#ffffff;fill-opacity:1" />
</svg>
