<?xml version="1.0" encoding="UTF-8" standalone="no"?>
<!-- Generated by IcoMoon.io -->

<svg
   xmlns:dc="http://purl.org/dc/elements/1.1/"
   xmlns:cc="http://creativecommons.org/ns#"
   xmlns:rdf="http://www.w3.org/1999/02/22-rdf-syntax-ns#"
   xmlns:svg="http://www.w3.org/2000/svg"
   xmlns="http://www.w3.org/2000/svg"
   xmlns:sodipodi="http://sodipodi.sourceforge.net/DTD/sodipodi-0.dtd"
   xmlns:inkscape="http://www.inkscape.org/namespaces/inkscape"
   version="1.1"
   width="60"
   height="60"
   viewBox="0 0 60 60"
   id="svg2"
   inkscape:version="0.91 r13725"
   sodipodi:docname="tw-3.svg">
  <metadata
     id="metadata10">
    <rdf:RDF>
      <cc:Work
         rdf:about="">
        <dc:format>image/svg+xml</dc:format>
        <dc:type
           rdf:resource="http://purl.org/dc/dcmitype/StillImage" />
        <dc:title></dc:title>
      </cc:Work>
    </rdf:RDF>
  </metadata>
  <defs
     id="defs8" />
  <sodipodi:namedview
     pagecolor="#ffffff"
     bordercolor="#666666"
     borderopacity="1"
     objecttolerance="10"
     gridtolerance="10"
     guidetolerance="10"
     inkscape:pageopacity="0"
     inkscape:pageshadow="2"
     inkscape:window-width="1859"
     inkscape:window-height="1056"
     id="namedview6"
     showgrid="false"
     inkscape:showpageshadow="false"
     inkscape:zoom="7.375"
     inkscape:cx="0.547014"
     inkscape:cy="48.08838"
     inkscape:window-x="61"
     inkscape:window-y="24"
     inkscape:window-maximized="1"
     inkscape:current-layer="svg2" />
  <path
     d="M 56.474577,9.7247115 C 54.538996,10.593904 52.452,11.17226 50.272823,11.430043 c 2.231843,-1.341791 3.940285,-3.4701525 4.753361,-6.0017109 -2.087001,1.2393414 -4.40443,2.1481894 -6.860111,2.6340114 -1.97508,-2.1085298 -4.782986,-3.4172761 -7.890445,-3.4172761 -5.968034,0 -10.800396,4.8549101 -10.800396,10.8434036 0,0.846056 0.09216,1.672284 0.276508,2.468766 C 20.771707,17.501162 12.808845,13.184948 7.4794243,6.6180995 6.5544279,8.2176735 6.0178649,10.088252 6.0178649,12.071196 c 0,3.760987 1.9026595,7.085722 4.8027331,9.025702 -1.7709852,-0.05288 -3.4366356,-0.548613 -4.8981961,-1.351706 0,0.04297 0,0.09256 0,0.135496 0,5.258108 3.723026,9.647027 8.6705971,10.638497 -0.905242,0.247853 -1.863155,0.383369 -2.850696,0.383369 -0.69786,0 -1.369388,-0.0727 -2.0376231,-0.194974 1.3792651,4.306296 5.3689241,7.445956 10.0926571,7.538496 -3.703274,2.911622 -8.354589,4.646699 -13.423959,4.646699 -0.8756175,0 -1.7281936,-0.05288 -2.5807698,-0.15535 4.7928603,3.086789 10.4712128,4.874743 16.5709178,4.874743 19.872594,0 30.748701,-16.534454 30.748701,-30.871143 0,-0.475909 -0.01008,-0.938595 -0.02955,-1.404585 2.110039,-1.516953 3.940285,-3.430496 5.388677,-5.6084285 z"
     id="path4"
     inkscape:connector-curvature="0"
     style="fill:#ffffff;fill-opacity:1" />
</svg>
