<?xml version="1.0" encoding="UTF-8" standalone="no"?>
<!-- Generated by IcoMoon.io -->

<svg
   xmlns:dc="http://purl.org/dc/elements/1.1/"
   xmlns:cc="http://creativecommons.org/ns#"
   xmlns:rdf="http://www.w3.org/1999/02/22-rdf-syntax-ns#"
   xmlns:svg="http://www.w3.org/2000/svg"
   xmlns="http://www.w3.org/2000/svg"
   xmlns:sodipodi="http://sodipodi.sourceforge.net/DTD/sodipodi-0.dtd"
   xmlns:inkscape="http://www.inkscape.org/namespaces/inkscape"
   version="1.1"
   width="32"
   height="32"
   viewBox="0 0 32 32"
   id="svg2"
   inkscape:version="0.91 r13725"
   sodipodi:docname="tw.svg">
  <metadata
     id="metadata10">
    <rdf:RDF>
      <cc:Work
         rdf:about="">
        <dc:format>image/svg+xml</dc:format>
        <dc:type
           rdf:resource="http://purl.org/dc/dcmitype/StillImage" />
        <dc:title />
      </cc:Work>
    </rdf:RDF>
  </metadata>
  <defs
     id="defs8" />
  <sodipodi:namedview
     pagecolor="#ffffff"
     bordercolor="#666666"
     borderopacity="1"
     objecttolerance="10"
     gridtolerance="10"
     guidetolerance="10"
     inkscape:pageopacity="0"
     inkscape:pageshadow="2"
     inkscape:window-width="1859"
     inkscape:window-height="1056"
     id="namedview6"
     showgrid="false"
     inkscape:showpageshadow="false"
     inkscape:zoom="14.75"
     inkscape:cx="-5.7222314"
     inkscape:cy="8"
     inkscape:window-x="61"
     inkscape:window-y="24"
     inkscape:window-maximized="1"
     inkscape:current-layer="svg2" />
  <path
     d="m 24.20339,9.6249895 c -0.635328,0.3068872 -1.320356,0.5110895 -2.035641,0.6021055 0.732572,-0.4737497 1.293345,-1.2252147 1.560226,-2.119038 -0.68503,0.4375767 -1.445694,0.7584662 -2.251738,0.9299964 -0.648293,-0.7444639 -1.56995,-1.2065449 -2.589931,-1.2065449 -1.958926,0 -3.545083,1.7141337 -3.545083,3.8285045 0,0.298719 0.03025,0.590437 0.09076,0.871653 C 12.48441,12.370638 9.8707094,10.846703 8.1213994,8.5281306 7.8177818,9.0928963 7.6416624,9.7533453 7.6416624,10.453468 c 0,1.3279 0.6245221,2.501772 1.5764321,3.186725 -0.5813022,-0.01867 -1.1280294,-0.1937 -1.6077665,-0.47725 0,0.01517 0,0.03268 0,0.04784 0,1.856492 1.2220325,3.406097 2.846005,3.756158 -0.297133,0.08751 -0.6115546,0.135357 -0.9357018,0.135357 -0.2290633,0 -0.4494826,-0.02567 -0.668822,-0.06884 0.4527252,1.520433 1.7622758,2.62896 3.3127768,2.661633 -1.215549,1.028013 -2.7422793,1.640621 -4.4062312,1.640621 -0.2874096,0 -0.5672561,-0.01867 -0.8471026,-0.05485 1.5731909,1.089859 3.4370328,1.721136 5.4391778,1.721136 6.522908,0 10.092842,-5.837856 10.092842,-10.899743 0,-0.16803 -0.0033,-0.331392 -0.0097,-0.49592 0.692592,-0.535594 1.293345,-1.211213 1.76876,-1.9801814 z"
     id="path4"
     inkscape:connector-curvature="0"
     style="fill:#c5cdd1;fill-opacity:1" />
</svg>
